<svg version="1.1" id="Layer_1" xmlns="http://www.w3.org/2000/svg" xmlns:xlink="http://www.w3.org/1999/xlink" x="0px" y="0px"
	 width="100%" viewBox="0 0 80 81" enable-background="new 0 0 80 81" xml:space="preserve">
<path fill="#000000" opacity="1.000000" stroke="none" 
	d="
M1.000000,40.000000 
	C1.000000,27.053383 1.000000,14.106767 1.000000,1.000000 
	C23.353998,1.000000 45.708340,1.000000 68.861542,1.255221 
	C69.214615,1.975157 68.852242,2.602285 68.310646,2.880500 
	C58.424480,7.958956 53.355366,16.500454 50.619438,26.891098 
	C49.829369,26.246834 49.327579,25.657936 48.901955,24.675064 
	C51.578587,18.762192 54.236492,13.269017 56.729370,7.701944 
	C57.208370,6.632247 57.619934,4.704856 57.070507,4.142570 
	C54.414223,1.424153 47.775898,3.038810 47.125286,6.810584 
	C46.212547,12.102027 46.268188,17.560511 45.522362,22.964533 
	C28.326748,15.741260 12.194987,21.202072 3.949727,36.527481 
	C3.246053,37.835400 1.996151,38.849438 1.000000,40.000000 
z"/>
<path fill="#000000" opacity="1.000000" stroke="none" 
	d="
M81.000000,33.000000 
	C81.000000,49.252621 81.000000,65.505241 81.000000,82.000000 
	C67.980103,82.000000 54.958710,82.000000 41.133316,81.723099 
	C40.785522,80.993584 41.162918,80.307495 41.709621,80.122940 
	C51.855785,76.697800 57.387856,68.937393 60.751480,59.410309 
	C63.426075,51.834820 61.407772,44.399483 59.449703,37.052406 
	C62.468147,37.666058 65.621490,39.563759 67.603745,38.717701 
	C71.918343,36.876160 78.028847,38.247753 80.349396,32.416378 
	C80.566261,32.610916 80.783134,32.805458 81.000000,33.000000 
z"/>
<path fill="#F2BF6B" opacity="1.000000" stroke="none" 
	d="
M59.053551,37.092255 
	C61.407772,44.399483 63.426075,51.834820 60.751480,59.410309 
	C57.387856,68.937393 51.855785,76.697800 41.709621,80.122940 
	C41.162918,80.307495 40.785522,80.993584 40.664658,81.723099 
	C27.738211,82.000000 14.476422,82.000000 1.000000,82.000000 
	C1.000000,68.313187 1.000000,54.625252 1.000000,40.468658 
	C1.996151,38.849438 3.246053,37.835400 3.949727,36.527481 
	C12.194987,21.202072 28.326748,15.741260 45.681267,23.235554 
	C47.093548,24.016069 47.959667,24.542555 48.825787,25.069038 
	C49.327579,25.657936 49.829369,26.246834 50.790916,27.175720 
	C52.850052,29.042578 54.449436,30.569447 56.124405,32.405830 
	C56.788765,33.534630 57.377541,34.353905 58.024166,35.452553 
	C58.405861,36.185371 58.729706,36.638813 59.053551,37.092255 
M23.202929,24.380915 
	C9.960591,29.881996 3.916910,38.656345 4.132320,52.851841 
	C4.255461,60.966785 4.962157,69.072876 5.398917,77.051544 
	C9.293351,77.344749 13.070628,77.854248 16.849440,77.865883 
	C24.282513,77.888786 32.007511,78.882957 39.088303,77.231308 
	C53.036320,73.977806 61.028503,58.067520 57.223915,43.575314 
	C53.323452,28.717901 39.772991,20.803013 23.202929,24.380915 
z"/>
<path fill="#BED38B" opacity="1.000000" stroke="none" 
	d="
M56.048817,32.096313 
	C54.449436,30.569447 52.850052,29.042578 51.079193,27.231087 
	C53.355366,16.500454 58.424480,7.958956 68.310646,2.880500 
	C68.852242,2.602285 69.214615,1.975157 69.330200,1.255221 
	C72.932785,1.000000 76.865562,1.000000 81.000000,1.000000 
	C81.000000,5.683653 81.000000,10.369163 80.724686,15.190661 
	C79.319984,16.210001 77.616364,16.861639 77.151688,18.013208 
	C73.293518,27.574627 65.137749,30.492313 56.048817,32.096313 
z"/>
<path fill="#BED38B" opacity="1.000000" stroke="none" 
	d="
M59.449703,37.052406 
	C58.729706,36.638813 58.405861,36.185371 58.374184,35.288998 
	C62.312611,32.934563 65.808479,30.600098 69.648872,29.234596 
	C73.242897,27.956694 76.311714,22.901054 81.000000,27.000000 
	C81.000000,28.714357 81.000000,30.428717 81.000000,32.571537 
	C80.783134,32.805458 80.566261,32.610916 80.349396,32.416378 
	C78.028847,38.247753 71.918343,36.876160 67.603745,38.717701 
	C65.621490,39.563759 62.468147,37.666058 59.449703,37.052406 
z"/>
<path fill="#000000" opacity="1.000000" stroke="none" 
	d="
M81.000000,26.541931 
	C76.311714,22.901054 73.242897,27.956694 69.648872,29.234596 
	C65.808479,30.600098 62.312611,32.934563 58.316334,35.009621 
	C57.377541,34.353905 56.788765,33.534630 56.124405,32.405830 
	C65.137749,30.492313 73.293518,27.574627 77.151688,18.013208 
	C77.616364,16.861639 79.319984,16.210001 80.724686,15.663324 
	C81.000000,19.361288 81.000000,22.722574 81.000000,26.541931 
z"/>
<path fill="#BED38B" opacity="1.000000" stroke="none" 
	d="
M48.901955,24.675064 
	C47.959667,24.542555 47.093548,24.016069 46.068527,23.218565 
	C46.268188,17.560511 46.212547,12.102027 47.125286,6.810584 
	C47.775898,3.038810 54.414223,1.424153 57.070507,4.142570 
	C57.619934,4.704856 57.208370,6.632247 56.729370,7.701944 
	C54.236492,13.269017 51.578587,18.762192 48.901955,24.675064 
z"/>
<path fill="#F6F6F6" opacity="1.000000" stroke="none" 
	d="
M23.589489,24.267996 
	C39.772991,20.803013 53.323452,28.717901 57.223915,43.575314 
	C61.028503,58.067520 53.036320,73.977806 39.088303,77.231308 
	C32.007511,78.882957 24.282513,77.888786 16.849440,77.865883 
	C13.070628,77.854248 9.293351,77.344749 5.398917,77.051544 
	C4.962157,69.072876 4.255461,60.966785 4.132320,52.851841 
	C3.916910,38.656345 9.960591,29.881996 23.589489,24.267996 
M33.103996,49.590786 
	C35.683487,52.188316 38.168972,54.892063 40.904560,57.313225 
	C41.644577,57.968189 43.141693,57.767731 44.291309,57.959904 
	C44.073074,56.807625 44.240845,55.309544 43.571011,54.561825 
	C40.354259,50.971046 37.033409,47.447006 33.452938,44.229286 
	C32.666981,43.522953 30.143251,43.563091 29.324528,44.285225 
	C25.713430,47.470318 22.346233,50.951530 19.105068,54.520187 
	C18.442963,55.249195 18.703709,56.816372 18.539053,57.997181 
	C19.675081,57.770962 21.121513,57.907242 21.888716,57.250298 
	C24.155848,55.308987 26.027714,52.903160 28.311411,50.985325 
	C29.460003,50.020748 31.165928,49.719826 33.103996,49.590786 
z"/>
<path fill="#F2C273" opacity="1.000000" stroke="none" 
	d="
M32.861908,49.354790 
	C31.165928,49.719826 29.460003,50.020748 28.311411,50.985325 
	C26.027714,52.903160 24.155848,55.308987 21.888716,57.250298 
	C21.121513,57.907242 19.675081,57.770962 18.539053,57.997181 
	C18.703709,56.816372 18.442963,55.249195 19.105068,54.520187 
	C22.346233,50.951530 25.713430,47.470318 29.324528,44.285225 
	C30.143251,43.563091 32.666981,43.522953 33.452938,44.229286 
	C37.033409,47.447006 40.354259,50.971046 43.571011,54.561825 
	C44.240845,55.309544 44.073074,56.807625 44.291306,57.959904 
	C43.141693,57.767731 41.644577,57.968189 40.904560,57.313225 
	C38.168972,54.892063 35.683487,52.188316 32.861908,49.354790 
z"/>
</svg>