<svg version="1.1" id="Layer_1" xmlns="http://www.w3.org/2000/svg" xmlns:xlink="http://www.w3.org/1999/xlink" x="0px" y="0px"
	 width="100%" viewBox="0 0 80 81" enable-background="new 0 0 80 81" xml:space="preserve">
<path fill="#000000" opacity="1.000000" stroke="none" 
	d="
M1.000000,40.000000 
	C1.000000,27.053383 1.000000,14.106767 1.000000,1.000000 
	C23.353998,1.000000 45.708340,1.000000 68.861542,1.255221 
	C69.214615,1.975157 68.852242,2.602285 68.310646,2.880500 
	C58.424480,7.958956 53.355366,16.500454 50.619438,26.891098 
	C49.829369,26.246834 49.327579,25.657936 48.901955,24.675064 
	C51.578587,18.762192 54.236492,13.269017 56.729370,7.701944 
	C57.208370,6.632247 57.619934,4.704856 57.070507,4.142570 
	C54.414223,1.424153 47.775898,3.038810 47.125286,6.810584 
	C46.212547,12.102027 46.268188,17.560511 45.522362,22.964533 
	C28.326748,15.741260 12.194987,21.202072 3.949727,36.527481 
	C3.246053,37.835400 1.996151,38.849438 1.000000,40.000000 
z"/>
<path fill="#000000" opacity="1.000000" stroke="none" 
	d="
M81.000000,33.000000 
	C81.000000,49.252621 81.000000,65.505241 81.000000,82.000000 
	C67.980103,82.000000 54.958710,82.000000 41.133316,81.723099 
	C40.785522,80.993584 41.162918,80.307495 41.709621,80.122940 
	C51.855785,76.697800 57.387856,68.937393 60.751480,59.410309 
	C63.426075,51.834820 61.407772,44.399483 59.449703,37.052406 
	C62.468147,37.666058 65.621490,39.563759 67.603745,38.717701 
	C71.918343,36.876160 78.028847,38.247753 80.349396,32.416378 
	C80.566261,32.610916 80.783134,32.805458 81.000000,33.000000 
z"/>
<path fill="#F2BF6B" opacity="1.000000" stroke="none" 
	d="
M59.053551,37.092255 
	C61.407772,44.399483 63.426075,51.834820 60.751480,59.410309 
	C57.387856,68.937393 51.855785,76.697800 41.709621,80.122940 
	C41.162918,80.307495 40.785522,80.993584 40.664658,81.723099 
	C27.738211,82.000000 14.476422,82.000000 1.000000,82.000000 
	C1.000000,68.313187 1.000000,54.625252 1.000000,40.468658 
	C1.996151,38.849438 3.246053,37.835400 3.949727,36.527481 
	C12.194987,21.202072 28.326748,15.741260 45.681267,23.235554 
	C47.093548,24.016069 47.959667,24.542555 48.825787,25.069038 
	C49.327579,25.657936 49.829369,26.246834 50.790916,27.175720 
	C52.850052,29.042578 54.449436,30.569447 56.124405,32.405830 
	C56.788765,33.534630 57.377541,34.353905 58.024166,35.452553 
	C58.405861,36.185371 58.729706,36.638813 59.053551,37.092255 
M5.921506,40.687416 
	C5.359536,52.865707 4.797566,65.043999 4.243391,77.053391 
	C13.809978,77.680481 22.076332,78.632179 30.348015,78.681000 
	C48.751881,78.789612 61.947269,61.633507 57.401287,43.964958 
	C54.437138,32.444393 45.263504,24.554695 33.266609,23.208151 
	C22.399977,21.988472 12.117444,28.343445 5.921506,40.687416 
z"/>
<path fill="#BED38B" opacity="1.000000" stroke="none" 
	d="
M56.048817,32.096313 
	C54.449436,30.569447 52.850052,29.042578 51.079193,27.231087 
	C53.355366,16.500454 58.424480,7.958956 68.310646,2.880500 
	C68.852242,2.602285 69.214615,1.975157 69.330200,1.255221 
	C72.932785,1.000000 76.865562,1.000000 81.000000,1.000000 
	C81.000000,5.683653 81.000000,10.369163 80.724686,15.190661 
	C79.319984,16.210001 77.616364,16.861639 77.151688,18.013208 
	C73.293518,27.574627 65.137749,30.492313 56.048817,32.096313 
z"/>
<path fill="#BED38B" opacity="1.000000" stroke="none" 
	d="
M59.449703,37.052406 
	C58.729706,36.638813 58.405861,36.185371 58.374184,35.288998 
	C62.312611,32.934563 65.808479,30.600098 69.648872,29.234596 
	C73.242897,27.956694 76.311714,22.901054 81.000000,27.000000 
	C81.000000,28.714357 81.000000,30.428717 81.000000,32.571537 
	C80.783134,32.805458 80.566261,32.610916 80.349396,32.416378 
	C78.028847,38.247753 71.918343,36.876160 67.603745,38.717701 
	C65.621490,39.563759 62.468147,37.666058 59.449703,37.052406 
z"/>
<path fill="#000000" opacity="1.000000" stroke="none" 
	d="
M81.000000,26.541931 
	C76.311714,22.901054 73.242897,27.956694 69.648872,29.234596 
	C65.808479,30.600098 62.312611,32.934563 58.316334,35.009621 
	C57.377541,34.353905 56.788765,33.534630 56.124405,32.405830 
	C65.137749,30.492313 73.293518,27.574627 77.151688,18.013208 
	C77.616364,16.861639 79.319984,16.210001 80.724686,15.663324 
	C81.000000,19.361288 81.000000,22.722574 81.000000,26.541931 
z"/>
<path fill="#BED38B" opacity="1.000000" stroke="none" 
	d="
M48.901955,24.675064 
	C47.959667,24.542555 47.093548,24.016069 46.068527,23.218565 
	C46.268188,17.560511 46.212547,12.102027 47.125286,6.810584 
	C47.775898,3.038810 54.414223,1.424153 57.070507,4.142570 
	C57.619934,4.704856 57.208370,6.632247 56.729370,7.701944 
	C54.236492,13.269017 51.578587,18.762192 48.901955,24.675064 
z"/>
<path fill="#F6F6F5" opacity="1.000000" stroke="none" 
	d="
M6.050360,40.318275 
	C12.117444,28.343445 22.399977,21.988472 33.266609,23.208151 
	C45.263504,24.554695 54.437138,32.444393 57.401287,43.964958 
	C61.947269,61.633507 48.751881,78.789612 30.348015,78.681000 
	C22.076332,78.632179 13.809978,77.680481 4.243391,77.053391 
	C4.797566,65.043999 5.359536,52.865707 6.050360,40.318275 
M42.119713,37.562244 
	C42.991684,38.133965 43.863655,38.705685 45.048016,39.955025 
	C49.941776,46.328461 45.484718,51.569466 42.399151,56.508739 
	C37.628788,56.440060 34.410385,54.533871 33.921444,49.097004 
	C36.682335,48.857113 39.452774,48.616390 42.223209,48.375668 
	C42.196938,48.091259 42.170670,47.806850 42.144402,47.522442 
	C36.134949,46.836582 30.125496,46.150723 23.728292,45.420609 
	C24.585520,42.492264 25.046347,40.918049 25.221634,40.319256 
	C21.603304,42.814861 17.637751,45.544731 13.682581,48.289562 
	C13.417568,48.473476 13.231128,48.770603 12.408420,49.376083 
	C8.704687,52.866219 8.083643,56.959152 9.740559,61.675308 
	C10.718249,64.458160 11.315866,67.374550 12.143408,70.450142 
	C16.681709,69.956696 22.016998,69.674591 27.210726,68.664566 
	C29.275269,68.263062 31.026217,66.249001 33.379543,64.644096 
	C33.666096,64.168167 33.952644,63.692245 34.737167,62.687840 
	C35.666077,58.889084 37.902691,57.114067 42.377686,58.553787 
	C43.924774,58.988983 45.471863,59.424179 46.117832,59.605892 
	C46.830376,56.316345 47.019341,53.670200 47.985611,51.347408 
	C50.082653,46.306396 49.507172,42.388065 45.191357,37.878120 
	C44.462296,37.499382 43.733234,37.120647 42.819286,36.275066 
	C41.515339,36.001698 40.211391,35.728333 38.907444,35.454964 
	C38.864922,35.821911 38.822395,36.188862 38.779873,36.555809 
	C39.815140,36.695278 40.850407,36.834747 42.119713,37.562244 
M27.248819,37.300961 
	C30.373140,36.676929 33.497463,36.052895 36.621784,35.428864 
	C36.426968,34.785980 36.232147,34.143101 36.037331,33.500217 
	C33.159657,34.536423 30.281984,35.572628 27.248819,37.300961 
z"/>
<path fill="#F3C67E" opacity="1.000000" stroke="none" 
	d="
M41.897961,58.060658 
	C37.902691,57.114067 35.666077,58.889084 34.246758,62.731361 
	C33.595757,62.627720 33.435173,62.480560 33.443550,61.965229 
	C35.174572,52.903069 30.920902,46.882843 22.849140,47.164410 
	C19.879793,47.267990 16.967669,49.012089 13.832806,49.871056 
	C13.387338,49.528988 13.177995,49.289272 13.008141,49.015072 
	C13.231128,48.770603 13.417568,48.473476 13.682581,48.289562 
	C17.637751,45.544731 21.603304,42.814861 25.221634,40.319256 
	C25.046347,40.918049 24.585520,42.492264 23.728292,45.420609 
	C30.125496,46.150723 36.134949,46.836582 42.144402,47.522442 
	C42.170670,47.806850 42.196938,48.091259 42.223209,48.375668 
	C39.452774,48.616390 36.682335,48.857113 33.921444,49.097004 
	C34.410385,54.533871 37.628788,56.440060 42.536919,56.975037 
	C42.447258,57.687248 42.188351,57.893692 41.897961,58.060658 
z"/>
<path fill="#F3C77F" opacity="1.000000" stroke="none" 
	d="
M12.708281,49.195580 
	C13.177995,49.289272 13.387338,49.528988 13.630936,50.170677 
	C7.643595,56.698338 12.343136,62.081520 15.180819,68.902733 
	C20.773691,67.290810 26.392469,65.671425 32.137203,64.228920 
	C32.451321,64.629440 32.670246,64.817192 32.919933,64.969078 
	C31.026217,66.249001 29.275269,68.263062 27.210726,68.664566 
	C22.016998,69.674591 16.681709,69.956696 12.143408,70.450142 
	C11.315866,67.374550 10.718249,64.458160 9.740559,61.675308 
	C8.083643,56.959152 8.704687,52.866219 12.708281,49.195580 
z"/>
<path fill="#F3C883" opacity="1.000000" stroke="none" 
	d="
M42.137825,58.307220 
	C42.188351,57.893692 42.447258,57.687248 42.826405,57.244003 
	C45.484718,51.569466 49.941776,46.328461 45.098305,39.403046 
	C45.272362,38.697140 45.396133,38.543213 45.519905,38.389282 
	C49.507172,42.388065 50.082653,46.306396 47.985611,51.347408 
	C47.019341,53.670200 46.830376,56.316345 46.117832,59.605892 
	C45.471863,59.424179 43.924774,58.988983 42.137825,58.307220 
z"/>
<path fill="#F3C67E" opacity="1.000000" stroke="none" 
	d="
M27.326565,36.954895 
	C30.281984,35.572628 33.159657,34.536423 36.037331,33.500217 
	C36.232147,34.143101 36.426968,34.785980 36.621784,35.428864 
	C33.497463,36.052895 30.373140,36.676929 27.326565,36.954895 
z"/>
<path fill="#F6F5F3" opacity="1.000000" stroke="none" 
	d="
M41.885674,36.974220 
	C40.850407,36.834747 39.815140,36.695278 38.779873,36.555809 
	C38.822395,36.188862 38.864922,35.821911 38.907444,35.454964 
	C40.211391,35.728333 41.515339,36.001698 42.632500,36.568573 
	C42.259037,36.899456 42.072353,36.936840 41.885674,36.974220 
z"/>
<path fill="#F3C883" opacity="1.000000" stroke="none" 
	d="
M42.002693,37.268234 
	C42.072353,36.936840 42.259037,36.899456 42.724945,36.801994 
	C43.733234,37.120647 44.462296,37.499382 45.355629,38.133701 
	C45.396133,38.543213 45.272362,38.697140 44.942108,39.064232 
	C43.863655,38.705685 42.991684,38.133965 42.002693,37.268234 
z"/>
<path fill="#F3C67E" opacity="1.000000" stroke="none" 
	d="
M33.149738,64.806587 
	C32.670246,64.817192 32.451321,64.629440 32.269043,63.996262 
	C32.608147,63.168941 32.941364,62.751171 33.274582,62.333405 
	C33.435173,62.480560 33.595757,62.627720 33.997768,62.995602 
	C33.952644,63.692245 33.666096,64.168167 33.149738,64.806587 
z"/>
<path fill="#F6F3EE" opacity="1.000000" stroke="none" 
	d="
M33.443550,61.965229 
	C32.941364,62.751171 32.608147,63.168941 32.143089,63.819374 
	C26.392469,65.671425 20.773691,67.290810 15.180819,68.902733 
	C12.343136,62.081520 7.643595,56.698338 13.827572,50.307518 
	C16.967669,49.012089 19.879793,47.267990 22.849140,47.164410 
	C30.920902,46.882843 35.174572,52.903069 33.443550,61.965229 
z"/>
</svg>