<svg version="1.1" id="Layer_1" xmlns="http://www.w3.org/2000/svg" xmlns:xlink="http://www.w3.org/1999/xlink" x="0px" y="0px"
	 width="100%" viewBox="0 0 490 637" enable-background="new 0 0 490 637" xml:space="preserve">
<path fill="none" opacity="1.000000" stroke="none" 
	d="
M87.000000,1.000000 
	C221.595840,1.000000 356.191681,1.000000 491.000000,1.000000 
	C491.000000,140.022568 491.000000,279.045258 490.753967,418.863281 
	C486.593201,415.761414 483.024750,411.418549 478.695862,408.054199 
	C467.659760,399.477051 454.498444,395.466370 441.208099,392.069061 
	C433.274536,390.041046 425.174744,388.663025 417.089142,386.546173 
	C416.003937,375.184692 415.131775,364.251526 413.825104,353.370544 
	C413.565643,351.209869 411.640564,349.249176 410.483551,347.196289 
	C410.005157,349.663666 408.973389,352.169983 409.143707,354.591736 
	C409.900940,365.358276 411.002441,376.100555 411.575989,386.757690 
	C402.144073,385.755005 393.115601,384.846283 384.053101,383.488342 
	C383.015656,370.560852 382.716553,357.974640 380.825409,345.632355 
	C378.605316,331.143036 375.261108,316.803772 371.854462,302.530701 
	C370.699005,297.689484 367.871124,293.247437 365.807495,288.622955 
	C365.127228,288.778229 364.446960,288.933472 363.766693,289.088715 
	C363.644775,290.672485 362.938263,292.506256 363.491943,293.801147 
	C368.659973,305.887512 372.043640,318.408020 374.288574,331.372070 
	C377.305695,348.795441 379.471497,366.234222 378.446350,383.966217 
	C374.382721,383.987885 370.769592,383.988159 367.094055,383.557251 
	C367.354004,380.029846 367.992798,376.927673 367.934814,373.838593 
	C367.801453,366.733856 367.441620,359.626678 366.886169,352.543030 
	C366.790741,351.326141 365.276550,350.220520 364.417725,349.063477 
	C363.618866,350.445618 362.122345,351.832825 362.132385,353.209045 
	C362.207184,363.467072 362.580414,373.722900 362.428345,383.987976 
	C358.348358,384.295441 354.700104,384.594299 351.057983,384.475403 
	C351.375671,382.632172 351.977509,381.202057 351.954559,379.782043 
	C351.688721,363.344391 351.616394,346.893127 350.755737,330.484131 
	C350.578674,327.108978 351.905640,321.895874 346.640869,320.026794 
	C346.103577,320.531616 345.391052,320.913574 345.424927,321.210297 
	C347.842133,342.384521 349.141357,363.581512 346.546509,384.923676 
	C342.768982,385.288696 339.416229,385.595978 336.038696,385.475342 
	C336.715637,377.236084 337.482178,369.429382 338.047424,361.608154 
	C338.129639,360.470459 337.249481,359.263184 336.814636,358.088104 
	C335.883972,358.977173 334.271332,359.769623 334.129517,360.770447 
	C332.895233,369.481140 331.924561,378.229156 330.445374,386.980957 
	C325.515106,387.663849 320.985168,388.175354 316.520355,389.027832 
	C300.136719,392.156036 284.139587,396.360291 269.486023,404.804291 
	C259.987488,410.277771 252.416946,417.048309 252.083115,428.778503 
	C251.718658,441.584503 251.743744,454.417328 252.162704,467.220001 
	C252.282349,470.876099 253.459747,475.238800 255.746994,477.913879 
	C259.436188,482.228729 264.448425,485.412354 268.946442,489.462158 
	C269.362335,491.561157 269.733582,493.271820 270.058655,495.436188 
	C270.680878,505.735352 271.188293,515.595032 272.057190,525.422791 
	C273.225220,538.633423 274.785248,551.809326 275.962036,565.019287 
	C276.822845,574.682312 277.262054,584.382263 278.041809,594.053467 
	C278.368164,598.101440 278.829163,602.173767 279.684174,606.136780 
	C281.570038,614.878113 288.630890,619.195984 295.670624,622.794556 
	C311.143555,630.704041 327.825287,634.620972 345.117157,636.076050 
	C346.124939,636.160889 347.041168,637.333618 348.000000,638.000000 
	C232.380905,638.000000 116.761810,638.000000 1.071356,638.000000 
	C1.071356,425.666687 1.071356,213.333344 1.071356,1.000000 
	C22.752707,1.000000 44.410313,1.000000 66.864929,1.271346 
	C64.010170,4.600061 59.656193,7.119485 56.829689,10.809069 
	C45.345219,25.800352 34.206856,41.062508 23.177271,56.394836 
	C13.254729,70.188248 9.599560,85.654243 13.818188,102.168510 
	C16.201666,111.498901 20.133072,120.480309 23.893534,129.396957 
	C26.612373,135.843735 28.774418,141.037674 22.560844,147.480881 
	C15.868939,154.420090 10.820267,163.010330 5.476528,171.156967 
	C2.543692,175.628128 3.538601,179.748703 7.501237,182.959351 
	C10.536766,185.418839 13.733418,187.682861 16.898703,189.978241 
	C35.725292,203.630737 54.582169,217.241547 73.393005,230.915680 
	C94.314964,246.124451 115.283844,261.271362 136.035599,276.709595 
	C140.884827,280.317169 145.991760,279.255798 149.449966,275.128265 
	C150.316330,274.094177 151.885010,273.235840 153.221085,273.082458 
	C157.957382,272.538849 162.730438,272.298126 167.493607,272.009216 
	C184.273819,270.991425 201.056107,270.007965 217.836807,268.998260 
	C228.691833,268.345184 239.540970,267.582001 250.400787,267.024628 
	C265.083099,266.271057 279.771729,265.635254 294.460541,265.017120 
	C299.706604,264.796387 300.375885,265.265503 304.088989,269.505493 
	C305.031891,270.582214 306.532043,271.162323 307.514282,272.214935 
	C310.086517,274.971436 314.139252,277.616730 314.615143,280.758698 
	C315.313232,285.368286 317.260468,286.129028 321.060425,286.381592 
	C322.471222,288.792664 323.995270,290.773895 324.953430,292.998871 
	C330.986389,307.007812 333.747925,321.722687 333.970001,336.928162 
	C334.016022,340.081451 334.116455,342.812897 338.708832,341.660583 
	C338.802338,340.730499 339.094757,339.735901 338.967285,338.798431 
	C337.469238,327.781525 336.325470,316.692902 334.226807,305.789001 
	C332.654236,297.618591 329.959137,289.628357 323.881439,283.050415 
	C324.074860,281.417480 324.197113,280.160004 324.574280,279.102203 
	C329.581055,285.579102 334.332947,291.856323 339.180084,298.259399 
	C342.351929,293.249878 333.050964,277.750854 325.215088,273.576080 
	C326.248932,268.802917 327.187897,264.416870 328.487854,260.033325 
	C335.635773,263.811951 342.422760,267.588135 349.209747,271.364288 
	C349.571808,270.789398 349.933838,270.214508 350.295868,269.639648 
	C345.849457,261.231323 336.296661,259.563507 329.018127,254.454346 
	C329.712921,249.699051 330.422058,245.364136 331.488037,241.192535 
	C345.178009,243.153259 357.456360,248.266876 369.792694,254.982086 
	C369.470215,247.245255 349.186279,238.359833 332.031372,236.490875 
	C332.326599,234.664307 332.797180,233.263870 332.931519,231.831909 
	C333.153748,229.462387 333.071381,227.841568 329.849945,226.759857 
	C322.944763,224.441208 324.663513,229.992401 323.972107,231.847733 
	C316.900909,235.040817 310.728302,237.828140 302.985229,241.324615 
	C268.252930,232.442139 231.356506,223.006195 194.266830,213.520828 
	C195.433258,211.892731 196.462753,210.435776 197.512512,208.993591 
	C207.664780,195.046173 217.870850,181.137527 227.949600,167.137192 
	C231.801178,161.786957 230.563034,155.708481 225.165588,151.918182 
	C208.569778,140.263885 192.288879,128.161179 175.863174,116.216454 
	C178.628708,112.202545 180.835846,108.131508 183.849213,104.786858 
	C193.190231,94.418907 189.454453,75.793358 177.690857,67.812523 
	C163.281830,58.036942 149.593857,47.204910 135.460358,37.015194 
	C119.504639,25.511717 103.395287,14.221410 87.391655,2.783947 
	C87.023941,2.521146 87.120171,1.609169 87.000000,1.000000 
M395.916443,285.760773 
	C391.419495,278.161682 387.061798,270.473389 382.301971,263.042694 
	C381.406677,261.645050 378.907104,261.275055 377.147827,260.430847 
	C377.542206,262.230133 377.541565,264.248138 378.396515,265.792450 
	C383.141724,274.363770 388.891052,282.474854 392.763031,291.408173 
	C397.022186,301.234772 399.554321,311.803894 403.029938,321.984283 
	C403.434998,323.170685 405.054871,323.942322 406.111572,324.906250 
	C406.428223,323.595398 407.314575,322.109406 406.973663,321.000732 
	C403.430084,309.476379 399.689087,298.012695 395.916443,285.760773 
M394.981781,334.700836 
	C392.985931,326.295868 391.007568,317.886688 388.983307,309.488586 
	C388.402161,307.077637 387.450958,305.075989 384.612274,306.339752 
	C388.516876,328.819153 392.392426,351.131348 396.347839,373.903503 
	C398.564270,374.153900 399.965088,374.106781 399.231537,369.734772 
	C397.335052,358.431549 396.347626,346.975769 394.981781,334.700836 
M345.035004,279.558960 
	C341.988525,276.499084 339.064453,273.298584 335.815094,270.471924 
	C334.932220,269.703888 333.068115,270.063751 331.654388,269.905945 
	C332.025513,271.254272 332.011108,272.932983 332.834412,273.893890 
	C336.437042,278.098663 340.785919,281.742401 343.938507,286.238647 
	C351.242340,296.655487 355.291290,308.533264 358.033478,320.892517 
	C358.515594,323.065430 359.497650,325.127441 360.248840,327.240662 
	C361.037476,327.114471 361.826141,326.988312 362.614777,326.862122 
	C362.614777,324.642639 363.013245,322.336151 362.550537,320.217743 
	C359.398224,305.786072 354.489563,292.064209 345.035004,279.558960 
M358.329132,264.075745 
	C366.567566,271.418915 372.380981,280.479004 377.141479,290.330658 
	C377.902405,291.905365 379.448029,293.100861 380.630890,294.471680 
	C381.121704,277.467133 355.219391,249.256592 335.577911,249.523056 
	C337.735321,251.593857 338.803558,253.058807 340.235504,253.916321 
	C345.970276,257.350586 351.817932,260.596344 358.329132,264.075745 
z"/>
<path fill="#FFAE2C" opacity="1.000000" stroke="none" 
	d="
M324.319366,278.902527 
	C324.197113,280.160004 324.074860,281.417480 323.611267,283.247925 
	C322.483948,284.568726 321.697968,285.316589 320.912018,286.064423 
	C317.260468,286.129028 315.313232,285.368286 314.615143,280.758698 
	C314.139252,277.616730 310.086517,274.971436 307.514282,272.214935 
	C306.532043,271.162323 305.031891,270.582214 304.088989,269.505493 
	C300.375885,265.265503 299.706604,264.796387 294.460541,265.017120 
	C279.771729,265.635254 265.083099,266.271057 250.400787,267.024628 
	C239.540970,267.582001 228.691833,268.345184 217.836807,268.998260 
	C201.056107,270.007965 184.273819,270.991425 167.493607,272.009216 
	C162.730438,272.298126 157.957382,272.538849 153.221085,273.082458 
	C151.885010,273.235840 150.316330,274.094177 149.449966,275.128265 
	C145.991760,279.255798 140.884827,280.317169 136.035599,276.709595 
	C115.283844,261.271362 94.314964,246.124451 73.393005,230.915680 
	C54.582169,217.241547 35.725292,203.630737 16.898703,189.978241 
	C13.733418,187.682861 10.536766,185.418839 7.501237,182.959351 
	C3.538601,179.748703 2.543692,175.628128 5.476528,171.156967 
	C10.820267,163.010330 15.868939,154.420090 22.560844,147.480881 
	C28.774418,141.037674 26.612373,135.843735 23.893534,129.396957 
	C20.133072,120.480309 16.201666,111.498901 13.818188,102.168510 
	C9.599560,85.654243 13.254729,70.188248 23.177271,56.394836 
	C34.206856,41.062508 45.345219,25.800352 56.829689,10.809069 
	C59.656193,7.119485 64.010170,4.600061 67.330971,1.271346 
	C73.354401,1.000000 79.708794,1.000000 86.531601,1.000000 
	C87.120171,1.609169 87.023941,2.521146 87.391655,2.783947 
	C103.395287,14.221410 119.504639,25.511717 135.460358,37.015194 
	C149.593857,47.204910 163.281830,58.036942 177.690857,67.812523 
	C189.454453,75.793358 193.190231,94.418907 183.849213,104.786858 
	C180.835846,108.131508 178.628708,112.202545 175.863174,116.216454 
	C192.288879,128.161179 208.569778,140.263885 225.165588,151.918182 
	C230.563034,155.708481 231.801178,161.786957 227.949600,167.137192 
	C217.870850,181.137527 207.664780,195.046173 197.512512,208.993591 
	C196.462753,210.435776 195.433258,211.892731 194.266830,213.520828 
	C231.356506,223.006195 268.252930,232.442139 302.985229,241.324615 
	C310.728302,237.828140 316.900909,235.040817 323.972107,231.847733 
	C324.663513,229.992401 322.944763,224.441208 329.849945,226.759857 
	C333.071381,227.841568 333.153748,229.462387 332.931519,231.831909 
	C332.797180,233.263870 332.326599,234.664307 331.771484,236.753632 
	C331.401001,238.628662 331.266083,239.828949 331.131195,241.029221 
	C330.422058,245.364136 329.712921,249.699051 328.715851,254.711487 
	C328.327545,256.936310 328.227234,258.483582 328.126892,260.030853 
	C327.187897,264.416870 326.248932,268.802917 325.078857,273.913422 
	C324.671600,276.059448 324.495483,277.480988 324.319366,278.902527 
M120.097923,155.125839 
	C119.963455,154.986404 119.828979,154.846985 119.732132,153.873779 
	C120.549309,147.628281 121.630333,141.280975 117.840073,135.617035 
	C116.889717,134.196884 114.785957,133.548569 113.212280,132.545532 
	C112.295395,134.002899 110.601318,135.456161 110.593559,136.918350 
	C110.556076,143.978012 110.972488,151.040085 110.529594,157.973358 
	C103.603073,154.164108 96.745209,150.218964 89.694016,146.656494 
	C88.225616,145.914627 86.041824,146.588745 84.187714,146.610306 
	C84.978050,148.450012 85.300095,150.809250 86.651070,152.026962 
	C90.010895,155.055374 93.839661,157.563522 98.380402,160.952484 
	C95.357086,160.952484 93.414040,160.751114 91.528610,160.995071 
	C87.787575,161.479095 83.969597,161.866776 80.407585,162.999359 
	C78.911217,163.475143 77.984100,165.741287 76.798203,167.193527 
	C78.195877,167.898544 79.548943,169.096741 80.998520,169.227814 
	C89.813858,170.024979 98.651161,170.579178 107.183891,171.193100 
	C98.199272,187.906891 97.939949,189.615585 104.765518,194.286926 
	C107.626137,188.707367 110.438919,183.221115 113.056564,178.115448 
	C115.364845,182.784149 117.465256,187.789673 120.283722,192.351578 
	C121.375305,194.118393 124.092323,194.880936 126.068855,196.100998 
	C126.515594,193.825653 127.778275,191.337082 127.250206,189.316498 
	C125.876717,184.061096 123.716934,179.011185 122.617592,174.451370 
	C128.792953,178.314453 135.337692,180.974289 142.798737,180.079941 
	C144.284042,179.901886 145.671448,178.907333 147.103989,178.289291 
	C146.147324,177.113358 145.416534,175.561432 144.194489,174.827255 
	C139.190247,171.820923 134.036194,169.064011 129.524017,166.543076 
	C134.149063,163.664932 139.165527,160.847198 143.788177,157.487610 
	C145.239258,156.433029 146.789795,153.362411 146.233353,152.209854 
	C145.425858,150.537338 142.837936,149.042206 140.843796,148.792267 
	C138.169815,148.457077 135.167908,148.924774 132.612106,149.871765 
	C128.439606,151.417847 124.513741,153.629486 120.097923,155.125839 
M109.617500,67.945221 
	C127.958298,81.253197 146.299103,94.561165 164.768951,107.962769 
	C166.207382,105.704216 167.344513,103.734985 168.664703,101.897263 
	C169.998672,100.040367 171.553192,98.343712 172.942856,96.524719 
	C177.820007,90.140823 175.963852,83.591377 170.650970,79.424377 
	C160.682190,71.605690 150.181534,64.467552 139.948151,56.983372 
	C121.828201,43.731369 103.771446,30.392797 85.628006,17.173140 
	C78.816513,12.210158 71.779953,13.090714 66.968369,19.839710 
	C57.433296,33.214115 47.819466,46.544598 37.816399,59.569298 
	C29.640680,70.214668 23.804218,81.871384 26.317614,95.264763 
	C28.342941,106.057327 33.058498,116.345047 36.817474,127.564056 
	C52.920990,105.631493 68.348228,84.667740 83.717224,63.661385 
	C88.947685,56.512379 93.937576,55.792828 100.843605,61.317497 
	C103.513489,63.453342 106.293472,65.451561 109.617500,67.945221 
M162.987717,256.505188 
	C173.046997,242.659576 183.106277,228.813980 193.165573,214.968369 
	C192.557968,214.534943 191.950378,214.101517 191.342789,213.668091 
	C178.140594,231.767960 164.938385,249.867828 151.736176,267.967682 
	C152.317947,268.400574 152.899704,268.833466 153.481461,269.266357 
	C156.505951,265.201843 159.530441,261.137329 162.987717,256.505188 
z"/>
<path fill="#FEA28B" opacity="1.000000" stroke="none" 
	d="
M348.468628,638.000000 
	C347.041168,637.333618 346.124939,636.160889 345.117157,636.076050 
	C327.825287,634.620972 311.143555,630.704041 295.670624,622.794556 
	C288.630890,619.195984 281.570038,614.878113 279.684174,606.136780 
	C278.829163,602.173767 278.368164,598.101440 278.041809,594.053467 
	C277.262054,584.382263 276.822845,574.682312 275.962036,565.019287 
	C274.785248,551.809326 273.225220,538.633423 272.057190,525.422791 
	C271.188293,515.595032 270.680878,505.735352 270.435608,495.416077 
	C277.598724,497.291809 284.239044,499.996094 291.097565,501.924164 
	C311.502441,507.660370 332.374207,510.118164 353.539856,511.305969 
	C378.908691,512.729675 404.086334,511.571228 428.976501,507.017883 
	C443.128143,504.428986 456.901489,499.772247 470.899353,496.466309 
	C470.635590,498.795471 470.169922,500.693817 470.024658,502.616394 
	C469.293243,512.294617 468.798676,521.992981 467.930664,531.658142 
	C466.758942,544.705444 465.213501,557.719116 464.036285,570.765991 
	C463.179169,580.265015 462.581909,589.789856 462.011047,599.311707 
	C461.531830,607.304626 458.559906,614.159668 451.813782,618.476318 
	C446.007385,622.191711 439.838806,625.951538 433.296143,627.774780 
	C420.857880,631.241089 408.031586,633.308594 395.389862,636.064453 
	C394.495117,636.259460 393.792145,637.334290 393.000000,638.000000 
	C378.312439,638.000000 363.624878,638.000000 348.468628,638.000000 
z"/>
<path fill="#FEA28B" opacity="1.000000" stroke="none" 
	d="
M417.149689,386.992798 
	C425.174744,388.663025 433.274536,390.041046 441.208099,392.069061 
	C454.498444,395.466370 467.659760,399.477051 478.695862,408.054199 
	C483.024750,411.418549 486.593201,415.761414 490.753967,419.329315 
	C491.000000,437.687561 491.000000,456.375122 490.751343,475.203186 
	C485.459320,482.464233 478.479889,487.127228 470.415771,490.914490 
	C465.363861,492.651215 460.737305,494.540009 455.983734,496.021118 
	C436.512054,502.088135 416.510040,504.937866 396.183167,506.255737 
	C364.809998,508.289734 333.648712,507.119843 302.978363,500.032837 
	C291.393951,497.356018 280.247742,492.782654 268.901794,489.073822 
	C264.448425,485.412354 259.436188,482.228729 255.746994,477.913879 
	C253.459747,475.238800 252.282349,470.876099 252.162704,467.220001 
	C251.743744,454.417328 251.718658,441.584503 252.083115,428.778503 
	C252.416946,417.048309 259.987488,410.277771 269.486023,404.804291 
	C284.139587,396.360291 300.136719,392.156036 316.520355,389.027832 
	C320.985168,388.175354 325.515106,387.663849 330.528931,387.394073 
	C330.597717,390.542969 330.152740,393.293640 329.504150,396.137512 
	C329.007721,396.412109 328.895172,396.671814 328.987427,397.007690 
	C329.011993,397.005676 328.989716,396.961761 328.596069,396.922546 
	C322.347076,397.922028 316.521606,399.545135 310.628479,399.847137 
	C303.718628,400.201294 298.062469,402.419739 293.214264,407.268188 
	C291.621155,408.861359 289.608154,410.107056 287.623779,411.220459 
	C284.160095,413.163910 280.047607,414.286499 277.150391,416.828400 
	C272.368042,421.024292 268.336243,426.075714 263.638580,431.143646 
	C265.345856,433.039612 266.463989,435.151184 268.210175,436.072876 
	C276.688293,440.547791 284.930206,446.085480 293.990265,448.738281 
	C337.782288,461.560486 382.318787,461.808990 427.055328,454.482056 
	C442.232086,451.996399 457.079865,448.181946 470.407715,440.075409 
	C478.306000,435.271332 478.477264,434.395813 475.045380,426.333618 
	C474.915131,426.027618 474.798187,425.713531 474.705566,425.394348 
	C472.408661,417.479858 466.518005,414.797485 458.930359,414.054749 
	C456.673309,413.833771 453.964874,412.696808 452.475494,411.059021 
	C442.925262,400.557037 431.108276,396.145111 417.055969,396.538055 
	C417.043091,393.056152 417.096405,390.024475 417.149689,386.992798 
z"/>
<path fill="none" opacity="1.000000" stroke="none" 
	d="
M470.782684,490.879150 
	C478.479889,487.127228 485.459320,482.464233 490.751343,475.671814 
	C491.000000,529.908997 491.000000,583.817993 491.000000,638.000000 
	C458.646271,638.000000 426.291809,638.000000 393.468658,638.000000 
	C393.792145,637.334290 394.495117,636.259460 395.389862,636.064453 
	C408.031586,633.308594 420.857880,631.241089 433.296143,627.774780 
	C439.838806,625.951538 446.007385,622.191711 451.813782,618.476318 
	C458.559906,614.159668 461.531830,607.304626 462.011047,599.311707 
	C462.581909,589.789856 463.179169,580.265015 464.036285,570.765991 
	C465.213501,557.719116 466.758942,544.705444 467.930664,531.658142 
	C468.798676,521.992981 469.293243,512.294617 470.024658,502.616394 
	C470.169922,500.693817 470.635590,498.795471 470.963684,496.039612 
	C470.910126,493.755219 470.846405,492.317169 470.782684,490.879150 
z"/>
<path fill="#BC8750" opacity="1.000000" stroke="none" 
	d="
M470.415771,490.914490 
	C470.846405,492.317169 470.910126,493.755219 470.909546,495.619965 
	C456.901489,499.772247 443.128143,504.428986 428.976501,507.017883 
	C404.086334,511.571228 378.908691,512.729675 353.539856,511.305969 
	C332.374207,510.118164 311.502441,507.660370 291.097565,501.924164 
	C284.239044,499.996094 277.598724,497.291809 270.481750,494.962402 
	C269.733582,493.271820 269.362335,491.561157 268.946442,489.462158 
	C280.247742,492.782654 291.393951,497.356018 302.978363,500.032837 
	C333.648712,507.119843 364.809998,508.289734 396.183167,506.255737 
	C416.510040,504.937866 436.512054,502.088135 455.983734,496.021118 
	C460.737305,494.540009 465.363861,492.651215 470.415771,490.914490 
z"/>
<path fill="#479A99" opacity="1.000000" stroke="none" 
	d="
M378.896790,383.944824 
	C379.471497,366.234222 377.305695,348.795441 374.288574,331.372070 
	C372.043640,318.408020 368.659973,305.887512 363.491943,293.801147 
	C362.938263,292.506256 363.644775,290.672485 363.766693,289.088715 
	C364.446960,288.933472 365.127228,288.778229 365.807495,288.622955 
	C367.871124,293.247437 370.699005,297.689484 371.854462,302.530701 
	C375.261108,316.803772 378.605316,331.143036 380.825409,345.632355 
	C382.716553,357.974640 383.015656,370.560852 383.841797,383.823395 
	C383.563507,386.439484 383.462494,388.271332 383.283173,390.539612 
	C383.194794,394.002411 383.184723,397.028809 383.109192,400.417023 
	C382.685547,402.185455 382.327423,403.592041 381.589020,404.937286 
	C380.531647,403.397034 379.383453,401.951843 379.274933,400.432343 
	C379.044464,397.205688 379.355194,393.940399 379.529175,390.314026 
	C379.375092,387.939697 379.135925,385.942261 378.896790,383.944824 
z"/>
<path fill="#469A9A" opacity="1.000000" stroke="none" 
	d="
M395.959656,286.146484 
	C399.689087,298.012695 403.430084,309.476379 406.973663,321.000732 
	C407.314575,322.109406 406.428223,323.595398 406.111572,324.906250 
	C405.054871,323.942322 403.434998,323.170685 403.029938,321.984283 
	C399.554321,311.803894 397.022186,301.234772 392.763031,291.408173 
	C388.891052,282.474854 383.141724,274.363770 378.396515,265.792450 
	C377.541565,264.248138 377.542206,262.230133 377.147827,260.430847 
	C378.907104,261.275055 381.406677,261.645050 382.301971,263.042694 
	C387.061798,270.473389 391.419495,278.161682 395.959656,286.146484 
z"/>
<path fill="#469A9A" opacity="1.000000" stroke="none" 
	d="
M394.989502,335.140869 
	C396.347626,346.975769 397.335052,358.431549 399.231537,369.734772 
	C399.965088,374.106781 398.564270,374.153900 396.347839,373.903503 
	C392.392426,351.131348 388.516876,328.819153 384.612274,306.339752 
	C387.450958,305.075989 388.402161,307.077637 388.983307,309.488586 
	C391.007568,317.886688 392.985931,326.295868 394.989502,335.140869 
z"/>
<path fill="#469A9A" opacity="1.000000" stroke="none" 
	d="
M345.287354,279.816467 
	C354.489563,292.064209 359.398224,305.786072 362.550537,320.217743 
	C363.013245,322.336151 362.614777,324.642639 362.614777,326.862122 
	C361.826141,326.988312 361.037476,327.114471 360.248840,327.240662 
	C359.497650,325.127441 358.515594,323.065430 358.033478,320.892517 
	C355.291290,308.533264 351.242340,296.655487 343.938507,286.238647 
	C340.785919,281.742401 336.437042,278.098663 332.834412,273.893890 
	C332.011108,272.932983 332.025513,271.254272 331.654388,269.905945 
	C333.068115,270.063751 334.932220,269.703888 335.815094,270.471924 
	C339.064453,273.298584 341.988525,276.499084 345.287354,279.816467 
z"/>
<path fill="#469A9A" opacity="1.000000" stroke="none" 
	d="
M357.976501,263.993774 
	C351.817932,260.596344 345.970276,257.350586 340.235504,253.916321 
	C338.803558,253.058807 337.735321,251.593857 335.577911,249.523056 
	C355.219391,249.256592 381.121704,277.467133 380.630890,294.471680 
	C379.448029,293.100861 377.902405,291.905365 377.141479,290.330658 
	C372.380981,280.479004 366.567566,271.418915 357.976501,263.993774 
z"/>
<path fill="#469A9A" opacity="1.000000" stroke="none" 
	d="
M346.971283,384.865936 
	C349.141357,363.581512 347.842133,342.384521 345.424927,321.210297 
	C345.391052,320.913574 346.103577,320.531616 346.640869,320.026794 
	C351.905640,321.895874 350.578674,327.108978 350.755737,330.484131 
	C351.616394,346.893127 351.688721,363.344391 351.954559,379.782043 
	C351.977509,381.202057 351.375671,382.632172 350.788086,384.653076 
	C349.331848,385.121002 348.151550,384.993469 346.971283,384.865936 
z"/>
<path fill="#469A9A" opacity="1.000000" stroke="none" 
	d="
M321.060425,286.381592 
	C321.697968,285.316589 322.483948,284.568726 323.540100,283.623383 
	C329.959137,289.628357 332.654236,297.618591 334.226807,305.789001 
	C336.325470,316.692902 337.469238,327.781525 338.967285,338.798431 
	C339.094757,339.735901 338.802338,340.730499 338.708832,341.660583 
	C334.116455,342.812897 334.016022,340.081451 333.970001,336.928162 
	C333.747925,321.722687 330.986389,307.007812 324.953430,292.998871 
	C323.995270,290.773895 322.471222,288.792664 321.060425,286.381592 
z"/>
<path fill="#FBA18A" opacity="1.000000" stroke="none" 
	d="
M346.546509,384.923676 
	C348.151550,384.993469 349.331848,385.121002 350.781982,385.070862 
	C354.700104,384.594299 358.348358,384.295441 362.520447,384.439819 
	C362.924927,388.250458 362.805542,391.617798 362.256775,395.003418 
	C358.893463,394.831177 355.962097,394.561371 353.025116,394.466583 
	C346.729340,394.263397 340.430634,394.150543 334.108582,393.610382 
	C334.743866,390.781128 335.403687,388.342194 336.063477,385.903259 
	C339.416229,385.595978 342.768982,385.288696 346.546509,384.923676 
z"/>
<path fill="#499A99" opacity="1.000000" stroke="none" 
	d="
M417.089142,386.546204 
	C417.096405,390.024475 417.043091,393.056152 417.002930,396.951294 
	C416.452667,399.500092 415.889282,401.185394 415.325897,402.870667 
	C414.582764,401.284454 413.827057,399.703949 413.108063,398.106842 
	C412.978607,397.819214 413.000305,397.463531 413.021057,396.686646 
	C412.719788,393.106598 412.349640,389.979095 411.979492,386.851624 
	C411.002441,376.100555 409.900940,365.358276 409.143707,354.591736 
	C408.973389,352.169983 410.005157,349.663666 410.483551,347.196289 
	C411.640564,349.249176 413.565643,351.209869 413.825104,353.370544 
	C415.131775,364.251526 416.003937,375.184692 417.089142,386.546204 
z"/>
<path fill="#FBA18A" opacity="1.000000" stroke="none" 
	d="
M411.575989,386.757690 
	C412.349640,389.979095 412.719788,393.106598 412.603577,396.680756 
	C408.621185,396.210968 405.138489,395.239227 401.626129,394.390320 
	C395.547607,392.921143 389.450714,391.528137 383.361511,390.103180 
	C383.462494,388.271332 383.563507,386.439484 383.875854,384.272583 
	C393.115601,384.846283 402.144073,385.755005 411.575989,386.757690 
z"/>
<path fill="#4A9998" opacity="1.000000" stroke="none" 
	d="
M362.686157,394.985168 
	C362.805542,391.617798 362.924927,388.250458 362.952179,384.431274 
	C362.580414,373.722900 362.207184,363.467072 362.132385,353.209045 
	C362.122345,351.832825 363.618866,350.445618 364.417725,349.063477 
	C365.276550,350.220520 366.790741,351.326141 366.886169,352.543030 
	C367.441620,359.626678 367.801453,366.733856 367.934814,373.838593 
	C367.992798,376.927673 367.354004,380.029846 367.016174,384.029114 
	C366.937195,387.864655 366.873657,390.797119 366.719238,394.065247 
	C366.405090,396.999481 366.371887,399.635193 365.873901,402.179993 
	C365.644470,403.352356 364.505493,404.346771 363.778931,405.421875 
	C363.230988,404.215393 362.286285,403.029846 362.221252,401.797852 
	C362.102112,399.541443 362.502441,397.257568 362.686157,394.985168 
z"/>
<path fill="#4A9998" opacity="1.000000" stroke="none" 
	d="
M336.038696,385.475342 
	C335.403687,388.342194 334.743866,390.781128 334.017181,394.001434 
	C333.283173,398.013123 332.765259,401.286316 331.856720,404.447235 
	C331.588959,405.378876 330.216675,405.993042 329.350586,406.752686 
	C329.008423,405.769989 328.368927,404.782684 328.383850,403.805420 
	C328.418762,401.521637 328.767853,399.242676 328.989746,396.961761 
	C328.989716,396.961761 329.011993,397.005676 329.192322,396.922791 
	C329.601166,396.623901 329.712860,396.358704 329.707764,396.044312 
	C330.152740,393.293640 330.597717,390.542969 330.959137,387.379211 
	C331.924561,378.229156 332.895233,369.481140 334.129517,360.770447 
	C334.271332,359.769623 335.883972,358.977173 336.814636,358.088104 
	C337.249481,359.263184 338.129639,360.470459 338.047424,361.608154 
	C337.482178,369.429382 336.715637,377.236084 336.038696,385.475342 
z"/>
<path fill="#469A99" opacity="1.000000" stroke="none" 
	d="
M331.488037,241.192535 
	C331.266083,239.828949 331.401001,238.628662 331.795776,237.165619 
	C349.186279,238.359833 369.470215,247.245255 369.792694,254.982086 
	C357.456360,248.266876 345.178009,243.153259 331.488037,241.192535 
z"/>
<path fill="#479A99" opacity="1.000000" stroke="none"
	d="
M324.574249,279.102203 
	C324.495483,277.480988 324.671600,276.059448 324.983948,274.300568 
	C333.050964,277.750854 342.351929,293.249878 339.180084,298.259399 
	C334.332947,291.856323 329.581055,285.579102 324.574249,279.102203 
z"/>
<path fill="#469A99" opacity="1.000000" stroke="none" 
	d="
M328.487854,260.033325 
	C328.227234,258.483582 328.327545,256.936310 328.730164,255.131866 
	C336.296661,259.563507 345.849457,261.231323 350.295868,269.639648 
	C349.933838,270.214508 349.571808,270.789398 349.209747,271.364288 
	C342.422760,267.588135 335.635773,263.811951 328.487854,260.033325 
z"/>
<path fill="#F9A18A" opacity="1.000000" stroke="none" 
	d="
M366.810150,393.729584 
	C366.873657,390.797119 366.937195,387.864655 367.078552,384.460327 
	C370.769592,383.988159 374.382721,383.987885 378.446350,383.966217 
	C379.135925,385.942261 379.375092,387.939697 379.154694,390.356323 
	C374.733459,391.760223 370.771820,392.744904 366.810150,393.729584 
z"/>
<path fill="none" opacity="1.000000" stroke="none" 
	d="
M109.320404,67.728851 
	C106.293472,65.451561 103.513489,63.453342 100.843605,61.317497 
	C93.937576,55.792828 88.947685,56.512379 83.717224,63.661385 
	C68.348228,84.667740 52.920990,105.631493 36.817474,127.564056 
	C33.058498,116.345047 28.342941,106.057327 26.317614,95.264763 
	C23.804218,81.871384 29.640680,70.214668 37.816399,59.569298 
	C47.819466,46.544598 57.433296,33.214115 66.968369,19.839710 
	C71.779953,13.090714 78.816513,12.210158 85.628006,17.173140 
	C103.771446,30.392797 121.828201,43.731369 139.948151,56.983372 
	C150.181534,64.467552 160.682190,71.605690 170.650970,79.424377 
	C175.963852,83.591377 177.820007,90.140823 172.942856,96.524719 
	C171.553192,98.343712 169.998672,100.040367 168.664703,101.897263 
	C167.344513,103.734985 166.207382,105.704216 164.768951,107.962769 
	C146.299103,94.561165 127.958298,81.253197 109.320404,67.728851 
z"/>
<path fill="#FFFCF8" opacity="1.000000" stroke="none" 
	d="
M121.870872,173.879288 
	C123.716934,179.011185 125.876717,184.061096 127.250206,189.316498 
	C127.778275,191.337082 126.515594,193.825653 126.068855,196.100998 
	C124.092323,194.880936 121.375305,194.118393 120.283722,192.351578 
	C117.465256,187.789673 115.364845,182.784149 113.056564,178.115448 
	C110.438919,183.221115 107.626137,188.707367 104.765518,194.286926 
	C97.939949,189.615585 98.199272,187.906891 107.183891,171.193100 
	C98.651161,170.579178 89.813858,170.024979 80.998520,169.227814 
	C79.548943,169.096741 78.195877,167.898544 76.798203,167.193527 
	C77.984100,165.741287 78.911217,163.475143 80.407585,162.999359 
	C83.969597,161.866776 87.787575,161.479095 91.528610,160.995071 
	C93.414040,160.751114 95.357086,160.952484 98.380402,160.952484 
	C93.839661,157.563522 90.010895,155.055374 86.651070,152.026962 
	C85.300095,150.809250 84.978050,148.450012 84.187714,146.610306 
	C86.041824,146.588745 88.225616,145.914627 89.694016,146.656494 
	C96.745209,150.218964 103.603073,154.164108 111.029129,158.137207 
	C111.716621,158.456436 111.872627,158.639114 111.743881,159.103180 
	C106.664268,163.417145 106.592194,166.964325 112.029472,170.041611 
	C114.840973,171.632812 118.531708,171.670502 121.848099,172.596085 
	C121.870956,173.147827 121.870918,173.513565 121.870872,173.879288 
z"/>
<path fill="#FFFDFA" opacity="1.000000" stroke="none" 
	d="
M122.244232,174.165329 
	C121.870918,173.513565 121.870956,173.147827 122.130920,172.423462 
	C127.127510,168.475723 127.392250,163.864624 122.358788,161.126694 
	C119.374702,159.503510 115.481255,159.552155 111.996689,158.849075 
	C111.872627,158.639114 111.716621,158.456436 111.378296,158.201172 
	C110.972488,151.040085 110.556076,143.978012 110.593559,136.918350 
	C110.601318,135.456161 112.295395,134.002899 113.212280,132.545532 
	C114.785957,133.548569 116.889717,134.196884 117.840073,135.617035 
	C121.630333,141.280975 120.549309,147.628281 119.552704,154.453979 
	C119.743462,155.209549 120.113640,155.384933 120.483818,155.560318 
	C124.513741,153.629486 128.439606,151.417847 132.612106,149.871765 
	C135.167908,148.924774 138.169815,148.457077 140.843796,148.792267 
	C142.837936,149.042206 145.425858,150.537338 146.233353,152.209854 
	C146.789795,153.362411 145.239258,156.433029 143.788177,157.487610 
	C139.165527,160.847198 134.149063,163.664932 129.524017,166.543076 
	C134.036194,169.064011 139.190247,171.820923 144.194489,174.827255 
	C145.416534,175.561432 146.147324,177.113358 147.103989,178.289291 
	C145.671448,178.907333 144.284042,179.901886 142.798737,180.079941 
	C135.337692,180.974289 128.792953,178.314453 122.244232,174.165329 
z"/>
<path fill="#FFE6AD" opacity="1.000000" stroke="none" 
	d="
M162.771332,256.789001 
	C159.530441,261.137329 156.505951,265.201843 153.481461,269.266357 
	C152.899704,268.833466 152.317947,268.400574 151.736176,267.967682 
	C164.938385,249.867828 178.140594,231.767960 191.342789,213.668091 
	C191.950378,214.101517 192.557968,214.534943 193.165573,214.968369 
	C183.106277,228.813980 173.046997,242.659576 162.771332,256.789001 
z"/>
<path fill="#986A41" opacity="1.000000" stroke="none" 
	d="
M366.719238,394.065247 
	C370.771820,392.744904 374.733459,391.760223 379.069580,390.733246 
	C379.355194,393.940399 379.044464,397.205688 379.274933,400.432343 
	C379.383453,401.951843 380.531647,403.397034 381.614746,405.311951 
	C382.533325,407.126160 382.697723,409.344818 383.622528,409.727905 
	C386.629333,410.973511 389.977386,412.305603 393.064758,412.048889 
	C394.529816,411.927063 396.449829,408.410645 396.838470,406.199219 
	C397.490540,402.488983 394.736237,400.286835 391.382935,399.757599 
	C388.728638,399.338654 385.916656,399.918762 383.174683,400.055206 
	C383.184723,397.028809 383.194794,394.002411 383.283203,390.539612 
	C389.450714,391.528137 395.547607,392.921143 401.626129,394.390320 
	C405.138489,395.239227 408.621185,396.210968 412.534729,397.133362 
	C413.000305,397.463531 412.978607,397.819214 413.108063,398.106842 
	C413.827057,399.703949 414.582764,401.284454 415.325897,402.870667 
	C415.889282,401.185394 416.452667,399.500092 417.069092,397.401550 
	C431.108276,396.145111 442.925262,400.557037 452.475494,411.059021 
	C453.964874,412.696808 456.673309,413.833771 458.930359,414.054749 
	C466.518005,414.797485 472.408661,417.479858 474.705566,425.394348 
	C474.798187,425.713531 474.915131,426.027618 475.045380,426.333618 
	C478.477264,434.395813 478.306000,435.271332 470.407715,440.075409 
	C457.079865,448.181946 442.232086,451.996399 427.055328,454.482056 
	C382.318787,461.808990 337.782288,461.560486 293.990265,448.738281 
	C284.930206,446.085480 276.688293,440.547791 268.210175,436.072876 
	C266.463989,435.151184 265.345856,433.039612 263.638580,431.143646 
	C268.336243,426.075714 272.368042,421.024292 277.150391,416.828400 
	C280.047607,414.286499 284.160095,413.163910 287.623779,411.220459 
	C289.608154,410.107056 291.621155,408.861359 293.214264,407.268188 
	C298.062469,402.419739 303.718628,400.201294 310.628479,399.847137 
	C316.521606,399.545135 322.347076,397.922028 328.596100,396.922546 
	C328.767853,399.242676 328.418762,401.521637 328.383850,403.805420 
	C328.368927,404.782684 329.008423,405.769989 329.350586,406.752686 
	C330.216675,405.993042 331.588959,405.378876 331.856720,404.447235 
	C332.765259,401.286316 333.283173,398.013123 334.041748,394.391754 
	C340.430634,394.150543 346.729340,394.263397 353.025116,394.466583 
	C355.962097,394.561371 358.893463,394.831177 362.256775,395.003418 
	C362.502441,397.257568 362.102112,399.541443 362.221252,401.797852 
	C362.286285,403.029846 363.230988,404.215393 363.778931,405.421875 
	C364.505493,404.346771 365.644470,403.352356 365.873901,402.179993 
	C366.371887,399.635193 366.405090,396.999481 366.719238,394.065247 
M330.053101,425.940491 
	C335.941925,426.507202 341.118530,425.971802 344.645508,420.012970 
	C347.545715,415.113159 347.707703,411.944336 343.670654,408.133881 
	C340.367554,405.016266 335.586365,404.852295 332.127533,408.575775 
	C329.500183,411.404114 327.512604,414.960510 325.799347,418.466125 
	C324.121979,421.898346 325.406219,424.605408 330.053101,425.940491 
M410.758179,442.627655 
	C411.335541,441.796631 412.591248,440.528046 412.382355,440.204163 
	C410.787140,437.730957 409.195740,435.124023 407.047607,433.169067 
	C403.701294,430.123627 399.834717,427.658691 396.340729,424.764130 
	C392.799164,421.830139 389.259766,420.829742 385.739899,422.275818 
	C387.701447,422.968719 389.854553,423.197266 391.287598,424.333710 
	C395.860016,427.959869 398.775604,433.406555 405.196198,435.131104 
	C407.333740,435.705261 408.522278,439.812439 410.758179,442.627655 
M440.999298,424.150970 
	C443.526184,428.587646 446.053040,433.024353 448.750519,437.760559 
	C451.344635,434.311035 449.469940,431.078674 447.974304,428.301300 
	C446.620392,425.787140 445.172119,422.417053 440.999298,424.150970 
M300.184387,429.978943 
	C293.568542,430.529633 288.946350,434.574768 289.206665,440.342560 
	C294.048798,437.022034 296.073151,429.942780 303.181488,430.407379 
	C302.426422,430.266815 301.671356,430.126251 300.184387,429.978943 
M357.062683,439.918640 
	C357.707764,439.613159 358.352844,439.307709 359.555939,438.737976 
	C351.384064,437.108185 347.065857,439.914124 348.089478,445.640869 
	C350.865387,443.743225 353.612305,441.865417 357.062683,439.918640 
z"/>
<path fill="#986A41" opacity="1.000000" stroke="none" 
	d="
M329.504150,396.137512 
	C329.712860,396.358704 329.601166,396.623901 329.167786,396.924805 
	C328.895172,396.671814 329.007721,396.412109 329.504150,396.137512 
z"/>
<path fill="#B7844C" opacity="1.000000" stroke="none" 
	d="
M383.109192,400.417023 
	C385.916656,399.918762 388.728638,399.338654 391.382935,399.757599 
	C394.736237,400.286835 397.490540,402.488983 396.838470,406.199219 
	C396.449829,408.410645 394.529816,411.927063 393.064758,412.048889 
	C389.977386,412.305603 386.629333,410.973511 383.622528,409.727905 
	C382.697723,409.344818 382.533325,407.126160 381.994995,405.373322 
	C382.327423,403.592041 382.685547,402.185455 383.109192,400.417023 
z"/>
<path fill="#FFB133" opacity="1.000000" stroke="none" 
	d="
M111.743881,159.103180 
	C115.481255,159.552155 119.374702,159.503510 122.358788,161.126694 
	C127.392250,163.864624 127.127510,168.475723 122.108017,172.237457 
	C118.531708,171.670502 114.840973,171.632812 112.029472,170.041611 
	C106.592194,166.964325 106.664268,163.417145 111.743881,159.103180 
z"/>
<path fill="#FFAE2C" opacity="1.000000" stroke="none" 
	d="
M120.290871,155.343079 
	C120.113640,155.384933 119.743462,155.209549 119.533897,154.870880 
	C119.828979,154.846985 119.963455,154.986404 120.290871,155.343079 
z"/>
<path fill="#B8854C" opacity="1.000000" stroke="none" 
	d="
M329.637360,425.875824 
	C325.406219,424.605408 324.121979,421.898346 325.799347,418.466125 
	C327.512604,414.960510 329.500183,411.404114 332.127533,408.575775 
	C335.586365,404.852295 340.367554,405.016266 343.670654,408.133881 
	C347.707703,411.944336 347.545715,415.113159 344.645508,420.012970 
	C341.118530,425.971802 335.941925,426.507202 329.637360,425.875824 
z"/>
<path fill="#B5824B" opacity="1.000000" stroke="none" 
	d="
M410.451416,442.466064 
	C408.522278,439.812439 407.333740,435.705261 405.196198,435.131104 
	C398.775604,433.406555 395.860016,427.959869 391.287598,424.333710 
	C389.854553,423.197266 387.701447,422.968719 385.739899,422.275818 
	C389.259766,420.829742 392.799164,421.830139 396.340729,424.764130 
	C399.834717,427.658691 403.701294,430.123627 407.047607,433.169067 
	C409.195740,435.124023 410.787140,437.730957 412.382355,440.204163 
	C412.591248,440.528046 411.335541,441.796631 410.451416,442.466064 
z"/>
<path fill="#B6834B" opacity="1.000000" stroke="none" 
	d="
M441.014496,423.850128 
	C445.172119,422.417053 446.620392,425.787140 447.974304,428.301300 
	C449.469940,431.078674 451.344635,434.311035 448.750519,437.760559 
	C446.053040,433.024353 443.526184,428.587646 441.014496,423.850128 
z"/>
<path fill="#B6834B" opacity="1.000000" stroke="none" 
	d="
M300.550354,429.982300 
	C301.671356,430.126251 302.426422,430.266815 303.181488,430.407379 
	C296.073151,429.942780 294.048798,437.022034 289.206665,440.342560 
	C288.946350,434.574768 293.568542,430.529633 300.550354,429.982300 
z"/>
<path fill="#B5824B" opacity="1.000000" stroke="none" 
	d="
M356.710938,439.953125 
	C353.612305,441.865417 350.865387,443.743225 348.089478,445.640869 
	C347.065857,439.914124 351.384064,437.108185 359.555939,438.737976 
	C358.352844,439.307709 357.707764,439.613159 356.710938,439.953125 
z"/>
</svg>