<svg version="1.1" id="Layer_1" xmlns="http://www.w3.org/2000/svg" xmlns:xlink="http://www.w3.org/1999/xlink" x="0px" y="0px"
	 width="100%" viewBox="0 0 250 454" enable-background="new 0 0 250 454" xml:space="preserve">
<path fill="#FEA28B" opacity="1.000000" stroke="none" 
	d="
M154.000000,455.000000 
	C134.645767,455.000000 115.291542,455.000000 95.808426,454.668457 
	C95.013184,453.902802 94.372238,453.136810 93.676697,453.083527 
	C79.824150,452.022644 66.551956,448.426971 53.962032,442.827545 
	C44.793941,438.749969 35.113750,433.766266 33.263817,422.734344 
	C31.211359,410.494690 30.976896,397.947388 30.010691,385.529358 
	C29.285086,376.203583 28.737864,366.863525 27.961935,357.542267 
	C26.698971,342.370148 25.314035,327.208160 24.315559,312.166565 
	C34.235981,315.543793 43.634842,319.588165 53.442139,321.899261 
	C81.877518,328.599976 110.765984,330.503113 139.980042,329.286865 
	C159.634216,328.468628 179.076462,326.569061 198.176605,321.952667 
	C207.182129,319.776031 215.970123,316.699402 224.919189,314.454285 
	C224.654221,317.780121 224.253021,320.676178 224.013168,323.585510 
	C223.298935,332.249176 222.754639,340.928040 221.947693,349.582611 
	C220.718338,362.767731 219.212158,375.927521 218.037521,389.117096 
	C217.178268,398.765381 216.661316,408.444183 215.994659,418.109589 
	C215.400726,426.720703 211.272202,433.030426 203.962891,437.615753 
	C189.666336,446.584381 173.733780,450.397644 157.372955,453.062012 
	C156.175201,453.257080 155.120972,454.333405 154.000000,455.000000 
z"/>
<path fill="none" opacity="1.000000" stroke="none" 
	d="
M23.980576,312.041901 
	C25.314035,327.208160 26.698971,342.370148 27.961935,357.542267 
	C28.737864,366.863525 29.285086,376.203583 30.010691,385.529358 
	C30.976896,397.947388 31.211359,410.494690 33.263817,422.734344 
	C35.113750,433.766266 44.793941,438.749969 53.962032,442.827545 
	C66.551956,448.426971 79.824150,452.022644 93.676697,453.083527 
	C94.372238,453.136810 95.013184,453.902802 95.339767,454.668457 
	C63.693768,455.000000 32.387539,455.000000 1.000000,455.000000 
	C1.000000,317.979126 1.000000,180.958221 1.399194,43.271561 
	C11.126841,42.605804 20.455294,42.605804 30.062613,42.605804 
	C29.354008,45.636654 28.974396,47.795135 33.423203,48.178417 
	C42.924717,48.997017 52.097469,47.801525 60.464088,43.664608 
	C70.763474,38.572033 79.840866,39.233456 88.896568,47.027832 
	C79.873672,44.717033 71.677574,46.594822 63.762409,49.851963 
	C62.527473,50.360146 62.011986,52.616650 61.163815,54.064709 
	C61.587456,54.362438 62.011101,54.660168 62.434742,54.957897 
	C62.063515,55.275742 61.719151,55.633270 61.317036,55.905487 
	C54.976456,60.197845 50.377388,65.866592 48.415085,73.307335 
	C47.777931,75.723335 46.419479,79.857788 50.862984,79.778267 
	C55.428871,79.696556 60.157501,78.474472 64.453888,76.816116 
	C67.872116,75.496719 70.698074,72.689888 73.895309,70.719147 
	C74.734482,70.201889 76.562752,69.824478 76.939812,70.255341 
	C79.816322,73.542358 82.410858,72.024315 85.444824,70.080978 
	C86.295647,70.819748 87.303154,71.694817 87.177406,72.353516 
	C86.632599,75.207146 85.098457,78.021805 85.200829,80.803658 
	C85.289459,83.212166 86.471886,86.429375 88.287987,87.734024 
	C91.300484,89.898132 94.844162,88.862091 97.456696,86.015709 
	C101.878662,81.197945 106.241776,76.326141 110.767746,71.324417 
	C112.972977,74.459846 115.437546,74.583000 118.354576,72.018158 
	C119.498970,74.101761 120.327866,76.011284 121.094093,78.333710 
	C120.412880,81.425972 119.365967,84.089355 119.265343,86.788033 
	C119.058807,92.326866 117.610489,98.179733 121.950134,103.484924 
	C121.984810,119.501923 121.984810,135.052658 121.984810,151.110397 
	C119.806808,149.674942 117.375931,148.157425 115.034409,146.512726 
	C109.448761,142.589310 103.612900,139.352264 96.464523,140.013672 
	C80.265335,141.512482 65.309196,147.112900 50.789005,154.076691 
	C47.920658,155.452332 49.219810,157.574387 50.723904,158.678879 
	C52.040936,159.645996 54.091347,159.887009 55.837086,159.955231 
	C71.808937,160.579514 86.281487,155.924988 99.405067,147.021362 
	C103.189026,144.454163 106.471603,144.341736 110.192032,146.999847 
	C114.255844,149.903275 118.547485,152.487823 122.865288,155.292877 
	C122.865288,170.664505 122.865288,186.322144 122.407043,201.988739 
	C116.527817,202.330368 111.088791,202.485046 105.689522,203.032059 
	C93.665802,204.250198 81.585457,205.190018 69.668259,207.111862 
	C52.510769,209.878799 35.926666,214.771255 20.990524,224.040237 
	C11.381699,230.003250 5.564703,238.175171 5.924335,250.160263 
	C6.273692,261.802917 5.919898,273.465118 6.038708,285.117035 
	C6.087893,289.940643 7.130888,294.537598 11.254929,297.744476 
	C15.215683,300.824341 19.213333,303.856812 23.120388,307.302582 
	C23.357531,309.143982 23.669052,310.592957 23.980576,312.041901 
z"/>
<path fill="none" opacity="1.000000" stroke="none" 
	d="
M154.468658,455.000000 
	C155.120972,454.333405 156.175201,453.257080 157.372955,453.062012 
	C173.733780,450.397644 189.666336,446.584381 203.962891,437.615753 
	C211.272202,433.030426 215.400726,426.720703 215.994659,418.109589 
	C216.661316,408.444183 217.178268,398.765381 218.037521,389.117096 
	C219.212158,375.927521 220.718338,362.767731 221.947693,349.582611 
	C222.754639,340.928040 223.298935,332.249176 224.013168,323.585510 
	C224.253021,320.676178 224.654221,317.780121 224.983719,314.028564 
	C224.917038,311.746399 224.848312,310.313660 224.978470,308.580658 
	C229.219391,305.913147 233.538162,303.909088 237.236572,301.090912 
	C242.373093,297.176849 245.446091,292.257324 245.155060,285.076172 
	C244.616043,271.776428 244.822449,258.435913 245.074173,245.119064 
	C245.204376,238.231506 242.331802,232.355392 237.192627,229.097855 
	C227.562454,222.993576 217.498947,216.923523 206.782120,213.314331 
	C182.356445,205.088303 156.818832,202.515411 131.061417,201.485550 
	C131.013123,186.527069 131.003235,172.033081 131.001785,157.539093 
	C131.000977,149.492645 138.956390,143.291458 146.776520,145.401382 
	C154.649796,147.525650 162.412735,150.074905 170.321594,152.046555 
	C177.560211,153.851135 184.739136,156.136765 192.501495,154.295059 
	C196.147018,153.430115 198.586929,151.186462 198.537659,148.304733 
	C198.502731,146.261993 195.749969,143.585281 193.557205,142.370956 
	C179.907410,134.811874 165.266144,135.833130 150.783569,138.812241 
	C144.055191,140.196304 137.701736,143.403000 131.464493,145.679031 
	C130.942505,130.163803 130.402527,114.113823 129.939972,97.700638 
	C131.162491,94.820091 132.307587,92.302765 133.763718,89.101677 
	C134.263245,91.771042 134.367691,93.879242 135.077728,95.758636 
	C136.132507,98.550468 137.226135,103.074791 139.006805,103.441048 
	C141.767761,104.008942 142.366623,105.561714 143.748566,107.133118 
	C147.778687,111.715759 151.508316,116.798363 156.323502,120.386124 
	C160.807999,123.727486 166.383636,125.842804 171.757416,127.685959 
	C177.244308,129.567902 178.882477,127.909332 179.018036,122.144173 
	C179.261078,111.808266 174.930878,102.997627 169.880646,94.441200 
	C168.548279,92.183838 166.902710,90.185631 171.080933,89.424042 
	C173.962479,92.067795 176.467178,94.772942 179.479462,96.673683 
	C183.178772,99.007942 186.738220,96.996666 186.955536,92.676659 
	C187.294632,85.934982 187.282211,79.214722 183.644531,73.092834 
	C183.076935,72.137627 182.523682,70.479179 182.962494,69.734062 
	C185.695099,65.093987 183.110931,62.075562 179.668152,60.027321 
	C174.016052,56.664661 167.991684,53.927677 162.290024,50.609581 
	C164.752014,49.492504 167.060654,48.726212 169.341644,47.885010 
	C172.721420,46.638599 174.069397,44.520016 172.453552,40.899715 
	C181.239090,37.696163 182.211212,38.041077 186.269516,45.703224 
	C186.952454,46.992626 187.416122,48.396259 188.028366,49.725346 
	C191.618210,57.518185 196.779251,64.309891 204.221191,68.380234 
	C210.925110,72.046913 213.968521,70.348473 215.748749,63.414368 
	C216.055252,62.220528 215.334167,60.762863 215.006195,58.985046 
	C227.286911,61.218739 238.847183,65.567604 251.000000,62.000000 
	C251.000000,192.882950 251.000000,323.765900 251.000000,455.000000 
	C218.979965,455.000000 186.958633,455.000000 154.468658,455.000000 
z"/>
<path fill="none" opacity="1.000000" stroke="none" 
	d="
M80.000000,1.000001 
	C136.888474,1.000000 193.776962,1.000000 251.000000,1.000000 
	C251.000000,18.352795 251.000000,35.707737 250.713226,53.822594 
	C240.921326,43.832756 229.011444,37.579414 214.799011,35.510311 
	C219.437988,33.994114 224.125534,32.671860 228.619461,30.867374 
	C229.995789,30.314720 230.841049,28.439491 231.929489,27.169914 
	C230.453827,26.115009 228.925766,24.086409 227.510956,24.162523 
	C218.012970,24.673502 208.295761,24.588360 199.123062,26.727066 
	C189.159225,29.050232 179.709076,33.576569 169.742569,36.998135 
	C169.022598,35.936081 168.595016,35.018131 168.462494,33.920197 
	C169.671036,31.492514 171.906769,28.629406 171.209534,27.131357 
	C169.944458,24.413218 169.931717,22.425369 170.851776,19.752045 
	C171.682159,17.339281 171.819855,14.638766 171.958939,12.048821 
	C172.175095,8.023348 170.115799,6.067984 166.049118,5.978257 
	C160.106430,5.847140 153.762085,10.985765 150.995087,18.165260 
	C150.462387,19.547489 149.363388,20.708801 148.544449,21.984116 
	C147.684982,23.322536 146.390839,24.586540 146.107559,26.042757 
	C145.671722,28.283289 145.936462,30.660103 145.581726,32.835709 
	C143.682617,32.377377 141.952972,31.477646 140.553894,31.843178 
	C131.997589,34.078655 124.353058,37.836250 120.093529,46.529949 
	C112.708420,42.379169 106.336258,44.549156 99.890564,47.542953 
	C99.166878,44.425934 98.365166,41.661003 98.163895,38.853039 
	C97.853699,34.525478 98.215912,30.138927 97.729988,25.841045 
	C97.575111,24.471275 95.470093,22.140438 94.537354,22.269682 
	C92.091316,22.608614 91.858917,21.348017 90.952690,19.757441 
	C87.825813,14.269254 84.382011,8.962195 81.098885,3.561853 
	C80.620979,2.775754 80.360878,1.857243 80.000000,1.000001 
z"/>
<path fill="#469A9A" opacity="1.000000" stroke="none" 
	d="
M79.539360,1.000001 
	C80.360878,1.857243 80.620979,2.775754 81.098885,3.561853 
	C84.382011,8.962195 87.825813,14.269254 90.952690,19.757441 
	C91.858917,21.348017 92.091316,22.608614 94.537354,22.269682 
	C95.470093,22.140438 97.575111,24.471275 97.729988,25.841045 
	C98.215912,30.138927 97.853699,34.525478 98.163895,38.853039 
	C98.365166,41.661003 99.166878,44.425934 99.719612,47.852997 
	C94.162376,51.742352 89.963326,56.435814 86.875328,61.940281 
	C85.568954,64.268944 85.636795,67.368523 85.080025,70.117706 
	C82.410858,72.024315 79.816322,73.542358 76.939812,70.255341 
	C76.562752,69.824478 74.734482,70.201889 73.895309,70.719147 
	C70.698074,72.689888 67.872116,75.496719 64.453888,76.816116 
	C60.157501,78.474472 55.428871,79.696556 50.862984,79.778267 
	C46.419479,79.857788 47.777931,75.723335 48.415085,73.307335 
	C50.377388,65.866592 54.976456,60.197845 61.317036,55.905487 
	C61.719151,55.633270 62.063515,55.275742 62.434742,54.957897 
	C62.011101,54.660168 61.587456,54.362438 61.163815,54.064709 
	C62.011986,52.616650 62.527473,50.360146 63.762409,49.851963 
	C71.677574,46.594822 79.873672,44.717033 88.896568,47.027832 
	C79.840866,39.233456 70.763474,38.572033 60.464088,43.664608 
	C52.097469,47.801525 42.924717,48.997017 33.423203,48.178417 
	C28.974396,47.795135 29.354008,45.636654 30.062613,42.605804 
	C20.455294,42.605804 11.126841,42.605804 1.399194,42.802902 
	C1.000000,40.629444 1.000000,38.258884 1.271631,35.742470 
	C7.998556,28.449665 16.925920,26.219486 25.259493,23.807560 
	C25.038391,19.236830 26.666986,15.588574 30.856743,15.149044 
	C37.285397,14.474640 43.984776,14.160138 50.304802,15.240288 
	C57.982147,16.552416 66.241058,17.777418 70.981247,25.494341 
	C72.012802,27.173683 73.097649,28.820284 74.029480,30.280638 
	C74.669884,28.352251 75.218849,26.699171 75.935234,24.541969 
	C70.434631,18.260056 66.973358,10.410736 68.000000,1.000000 
	C71.692909,1.000000 75.385818,1.000000 79.539360,1.000001 
M56.769886,38.042706 
	C56.769886,38.042706 56.780064,38.332001 56.780064,38.332001 
	C56.780064,38.332001 57.037277,38.029942 57.473736,37.832695 
	C57.742596,37.646370 57.951385,37.407528 58.528839,36.742687 
	C58.768215,36.233997 59.007587,35.725304 59.920536,34.990486 
	C61.506760,34.500149 63.092979,34.009808 66.061081,33.092300 
	C61.797306,32.401886 58.922997,31.936460 56.968300,31.619946 
	C57.461636,32.479790 58.147182,33.674660 58.431164,35.278870 
	C58.234974,35.807365 58.038780,36.335865 57.447659,37.136990 
	C57.195244,37.355747 57.033386,37.628304 56.769886,38.042706 
M91.837936,40.465092 
	C87.044861,37.380627 82.251785,34.296165 77.458702,31.211700 
	C77.007614,32.032013 76.556519,32.852325 76.105431,33.672634 
	C81.352341,36.167603 86.599251,38.662571 91.837936,40.465092 
M45.882023,31.969358 
	C46.537724,31.784935 47.193428,31.600510 47.849129,31.416084 
	C47.789974,30.899351 47.730820,30.382616 47.671669,29.865883 
	C40.601353,30.184729 33.531036,30.503574 26.460722,30.822420 
	C26.470297,31.201990 26.479874,31.581560 26.489450,31.961130 
	C32.702168,31.961130 38.914883,31.961130 45.882023,31.969358 
M68.227417,34.870747 
	C68.863075,35.075153 69.498741,35.279556 70.134399,35.483963 
	C70.194550,35.186771 70.254692,34.889584 70.314835,34.592392 
	C69.582359,34.533615 68.849884,34.474838 68.227417,34.870747 
M22.790308,32.477188 
	C22.926287,32.470833 23.062263,32.464478 23.198242,32.458122 
	C23.107742,32.414814 23.017242,32.371502 22.790308,32.477188 
z"/>
<path fill="#469A9A" opacity="1.000000" stroke="none" 
	d="
M170.034943,37.142242 
	C179.709076,33.576569 189.159225,29.050232 199.123062,26.727066 
	C208.295761,24.588360 218.012970,24.673502 227.510956,24.162523 
	C228.925766,24.086409 230.453827,26.115009 231.929489,27.169914 
	C230.841049,28.439491 229.995789,30.314720 228.619461,30.867374 
	C224.125534,32.671860 219.437988,33.994114 214.799011,35.510311 
	C229.011444,37.579414 240.921326,43.832756 250.713226,54.291252 
	C251.000000,56.370556 251.000000,58.741116 251.000000,61.555836 
	C238.847183,65.567604 227.286911,61.218739 215.006195,58.985046 
	C215.334167,60.762863 216.055252,62.220528 215.748749,63.414368 
	C213.968521,70.348473 210.925110,72.046913 204.221191,68.380234 
	C196.779251,64.309891 191.618210,57.518185 188.028366,49.725346 
	C187.416122,48.396259 186.952454,46.992626 186.269516,45.703224 
	C182.211212,38.041077 181.239090,37.696163 172.161346,40.725353 
	C171.034409,39.533527 170.534683,38.337883 170.034943,37.142242 
M237.653183,51.520313 
	C237.108780,51.340309 236.564392,51.160305 235.561096,50.469040 
	C234.284790,49.993652 233.008499,49.518265 230.251083,48.491211 
	C231.539474,51.418152 232.182449,52.878834 232.598663,53.824383 
	C233.969345,52.690247 234.977600,51.855988 236.345978,51.478622 
	C236.889542,51.660076 237.433121,51.841534 238.223236,52.354710 
	C238.484543,52.407024 238.745850,52.459335 239.007156,52.511642 
	C238.676880,52.332741 238.346603,52.153835 237.653183,51.520313 
M197.682251,40.217258 
	C197.725845,40.057602 197.815109,39.893230 197.799271,39.739693 
	C197.785355,39.604767 197.622284,39.360687 197.578812,39.371960 
	C196.888519,39.551048 195.599243,39.814663 195.611557,39.960964 
	C195.984344,44.391800 196.485535,48.811832 196.966660,53.233555 
	C197.443466,53.157570 197.920273,53.081585 198.397095,53.005600 
	C198.063263,48.929947 197.729431,44.854294 197.682251,40.217258 
M219.800888,45.131126 
	C219.160934,44.926903 218.520981,44.722679 217.881012,44.518456 
	C217.800400,44.809387 217.719788,45.100319 217.639175,45.391251 
	C218.398605,45.456554 219.158051,45.521854 219.800888,45.131126 
M229.154739,48.694374 
	C229.072586,48.694378 228.990448,48.694382 229.154739,48.694374 
M244.251877,54.527309 
	C244.082092,54.535027 243.912323,54.542744 243.742538,54.550461 
	C243.855713,54.603069 243.968903,54.655682 244.251877,54.527309 
M226.151505,47.318436 
	C226.081207,47.439903 226.010895,47.561371 225.940582,47.682842 
	C226.053757,47.631416 226.166916,47.579987 226.151505,47.318436 
M222.722977,46.476238 
	C222.895706,46.467518 223.068420,46.458797 223.241150,46.450073 
	C223.126251,46.398270 223.011353,46.346466 222.722977,46.476238 
M241.614227,53.514885 
	C241.614227,53.514885 241.491364,53.586033 241.614227,53.514885 
z"/>
<path fill="none" opacity="1.000000" stroke="none" 
	d="
M67.531342,1.000000 
	C66.973358,10.410736 70.434631,18.260056 75.935234,24.541969 
	C75.218849,26.699171 74.669884,28.352251 74.029480,30.280638 
	C73.097649,28.820284 72.012802,27.173683 70.981247,25.494341 
	C66.241058,17.777418 57.982147,16.552416 50.304802,15.240288 
	C43.984776,14.160138 37.285397,14.474640 30.856743,15.149044 
	C26.666986,15.588574 25.038391,19.236830 25.259493,23.807560 
	C16.925920,26.219486 7.998556,28.449665 1.271631,35.298306 
	C1.000000,23.715982 1.000000,12.431966 1.000000,1.000000 
	C23.020697,1.000000 45.041691,1.000000 67.531342,1.000000 
z"/>
<path fill="#BC8750" opacity="1.000000" stroke="none" 
	d="
M224.779587,308.880951 
	C224.848312,310.313660 224.917038,311.746399 224.921234,313.604858 
	C215.970123,316.699402 207.182129,319.776031 198.176605,321.952667 
	C179.076462,326.569061 159.634216,328.468628 139.980042,329.286865 
	C110.765984,330.503113 81.877518,328.599976 53.442139,321.899261 
	C43.634842,319.588165 34.235981,315.543793 24.315559,312.166565 
	C23.669052,310.592957 23.357531,309.143982 23.483894,307.333801 
	C31.073235,309.673859 38.083282,312.864166 45.403744,314.980988 
	C64.334427,320.455017 83.743988,322.995483 103.422539,324.270355 
	C131.652374,326.099213 159.690552,324.931549 187.391235,319.468536 
	C200.057388,316.970551 212.329025,312.472107 224.779587,308.880951 
z"/>
<path fill="#FEA28B" opacity="1.000000" stroke="none" 
	d="
M224.978470,308.580658 
	C212.329025,312.472107 200.057388,316.970551 187.391235,319.468536 
	C159.690552,324.931549 131.652374,326.099213 103.422539,324.270355 
	C83.743988,322.995483 64.334427,320.455017 45.403744,314.980988 
	C38.083282,312.864166 31.073235,309.673859 23.558273,306.941345 
	C19.213333,303.856812 15.215683,300.824341 11.254929,297.744476 
	C7.130888,294.537598 6.087893,289.940643 6.038708,285.117035 
	C5.919898,273.465118 6.273692,261.802917 5.924335,250.160263 
	C5.564703,238.175171 11.381699,230.003250 20.990524,224.040237 
	C35.926666,214.771255 52.510769,209.878799 69.668259,207.111862 
	C81.585457,205.190018 93.665802,204.250198 105.689522,203.032059 
	C111.088791,202.485046 116.527817,202.330368 122.499008,202.444153 
	C122.972618,206.615921 122.896019,210.341202 122.385284,214.098450 
	C118.843132,213.741119 115.575783,213.835175 112.656609,212.872971 
	C103.431496,209.832184 94.518730,210.499725 86.001060,214.807938 
	C80.436821,217.622314 74.786659,218.225220 68.654213,218.263550 
	C63.332840,218.296814 57.588211,219.035126 52.809002,221.188965 
	C45.817074,224.339981 39.128426,228.525742 33.042370,233.219437 
	C27.385265,237.582321 22.686687,243.188080 17.553095,248.259491 
	C18.710680,250.015289 19.238642,251.065369 19.998142,251.906311 
	C20.995180,253.010223 22.108521,254.034866 23.286135,254.945862 
	C33.000935,262.461182 44.416264,266.185059 56.096226,268.957611 
	C98.982292,279.137695 142.124359,279.455688 185.356796,271.389679 
	C199.631866,268.726349 213.624130,264.952728 225.931015,256.751007 
	C232.455063,252.403168 232.503662,251.923386 229.457047,245.079224 
	C229.118607,244.318893 228.745178,243.563293 228.510437,242.769318 
	C226.357834,235.488388 220.891815,232.848755 213.922028,232.044479 
	C212.442352,231.873734 211.039780,230.829849 209.653885,230.090378 
	C205.784332,228.025726 202.031174,225.718658 198.062805,223.870743 
	C194.477539,222.201218 190.736481,220.780670 186.941498,219.668839 
	C182.256485,218.296249 177.345078,216.140747 172.711655,216.520721 
	C166.139816,217.059647 160.208679,216.331818 154.261124,213.772552 
	C146.519135,210.441101 138.476105,210.028992 130.242432,211.445679 
	C130.498459,207.994263 130.800919,204.972153 131.103363,201.950043 
	C156.818832,202.515411 182.356445,205.088303 206.782120,213.314331 
	C217.498947,216.923523 227.562454,222.993576 237.192627,229.097855 
	C242.331802,232.355392 245.204376,238.231506 245.074173,245.119064 
	C244.822449,258.435913 244.616043,271.776428 245.155060,285.076172 
	C245.446091,292.257324 242.373093,297.176849 237.236572,301.090912 
	C233.538162,303.909088 229.219391,305.913147 224.978470,308.580658 
z"/>
<path fill="#337C7A" opacity="1.000000" stroke="none" 
	d="
M169.742569,36.998135 
	C170.534683,38.337883 171.034409,39.533527 171.826340,40.903534 
	C174.069397,44.520016 172.721420,46.638599 169.341644,47.885010 
	C167.060654,48.726212 164.752014,49.492504 161.825745,50.627529 
	C155.102097,51.314693 149.008469,51.666634 142.508148,52.010933 
	C138.665344,52.170780 134.354141,48.529644 131.689407,55.221977 
	C133.934158,55.812668 135.930542,56.338005 138.201370,57.118382 
	C140.572815,57.238987 142.698730,57.274628 144.759033,56.924351 
	C147.014603,56.540878 149.528046,54.805328 151.373550,55.395710 
	C157.944061,57.497616 164.343353,60.189278 170.676544,62.957199 
	C174.236938,64.513290 174.952225,67.146797 171.663712,69.820457 
	C169.057297,71.939545 166.199646,73.749588 163.264969,75.830559 
	C166.896103,79.836517 172.087326,82.725441 170.929138,89.128746 
	C166.902710,90.185631 168.548279,92.183838 169.880646,94.441200 
	C174.930878,102.997627 179.261078,111.808266 179.018036,122.144173 
	C178.882477,127.909332 177.244308,129.567902 171.757416,127.685959 
	C166.383636,125.842804 160.807999,123.727486 156.323502,120.386124 
	C151.508316,116.798363 147.778687,111.715759 143.748566,107.133118 
	C142.366623,105.561714 141.767761,104.008942 139.006805,103.441048 
	C137.226135,103.074791 136.132507,98.550468 135.077728,95.758636 
	C134.367691,93.879242 134.263245,91.771042 133.763718,89.101677 
	C132.307587,92.302765 131.162491,94.820091 129.656052,97.875252 
	C127.368675,100.803413 125.769775,103.717896 121.915466,103.018646 
	C117.610489,98.179733 119.058807,92.326866 119.265343,86.788033 
	C119.365967,84.089355 120.412880,81.425972 121.329193,78.100891 
	C123.076225,74.009659 124.525482,70.564148 126.282471,66.960114 
	C128.068939,64.876411 129.547699,62.951225 130.992386,61.070385 
	C128.351776,58.120045 127.129486,57.944637 125.306046,60.436108 
	C124.064873,62.132004 123.182213,64.090294 121.834846,66.093643 
	C120.366653,68.118713 119.202866,69.981392 118.039078,71.844070 
	C115.437546,74.583000 112.972977,74.459846 110.767746,71.324417 
	C106.241776,76.326141 101.878662,81.197945 97.456696,86.015709 
	C94.844162,88.862091 91.300484,89.898132 88.287987,87.734024 
	C86.471886,86.429375 85.289459,83.212166 85.200829,80.803658 
	C85.098457,78.021805 86.632599,75.207146 87.177406,72.353516 
	C87.303154,71.694817 86.295647,70.819748 85.444824,70.080978 
	C85.636795,67.368523 85.568954,64.268944 86.875328,61.940281 
	C89.963326,56.435814 94.162376,51.742352 99.910614,48.185802 
	C106.336258,44.549156 112.708420,42.379169 120.093529,46.529949 
	C124.353058,37.836250 131.997589,34.078655 140.553894,31.843178 
	C141.952972,31.477646 143.682617,32.377377 145.996033,32.840874 
	C154.008331,30.835463 161.221725,29.885040 168.167419,34.100182 
	C168.595016,35.018131 169.022598,35.936081 169.742569,36.998135 
M136.239258,64.423599 
	C136.441574,64.676590 136.688614,64.873451 136.943161,65.705887 
	C136.625458,66.801605 136.307739,67.897331 135.447678,69.294853 
	C134.746658,70.149368 134.045639,71.003891 133.344620,71.858406 
	C133.724609,72.086067 134.104584,72.313736 134.484573,72.541397 
	C134.993515,71.364944 135.502472,70.188484 136.749146,69.020233 
	C137.486694,69.030212 138.224228,69.040184 139.219223,69.446198 
	C139.415512,69.700394 139.657349,69.899170 139.966797,70.724579 
	C140.630768,71.826309 141.294754,72.928040 141.990448,74.763237 
	C142.807953,76.687691 143.625443,78.612144 144.442947,80.536598 
	C144.942139,80.258362 145.441330,79.980133 145.940521,79.701904 
	C144.640778,77.788033 143.341049,75.874168 142.046509,73.309395 
	C142.360840,72.533249 142.675171,71.757103 143.587158,70.902252 
	C144.385910,70.541695 145.184677,70.181137 145.983444,69.820572 
	C145.885483,69.563774 145.787537,69.306976 145.689590,69.050179 
	C144.793060,69.366959 143.896530,69.683731 142.258850,69.998840 
	C141.517944,69.983368 140.777023,69.967896 139.780365,69.555328 
	C139.585190,69.300468 139.344513,69.100311 139.032120,68.273430 
	C138.358765,67.176628 137.685394,66.079826 136.749161,64.587029 
	C136.545334,64.338234 136.301407,64.138390 135.925293,63.809109 
	C135.925293,63.809109 135.669037,63.813370 135.669037,63.813370 
	C135.669037,63.813370 135.985870,64.019783 136.239258,64.423599 
M110.193138,55.925682 
	C110.193138,55.925682 110.190918,55.667862 110.190918,55.667862 
	C110.190918,55.667862 109.980324,55.986019 109.578094,56.241966 
	C109.325897,56.445160 109.129433,56.692608 108.607292,57.012890 
	C108.422554,57.159275 108.237816,57.305664 108.053085,57.452053 
	C108.164818,57.492905 108.324081,57.601749 108.379959,57.562691 
	C108.608467,57.402958 108.805412,57.198067 109.411674,56.748920 
	C109.661163,56.545570 109.861496,56.301811 110.193138,55.925682 
M162.766006,106.564545 
	C162.560638,106.317711 162.314026,106.123161 161.946457,105.404556 
	C161.636261,104.928940 161.326050,104.453331 160.755936,103.582680 
	C160.556732,103.332970 160.318802,103.128281 160.181458,102.407150 
	C161.180954,101.895546 162.180450,101.383942 163.179947,100.872337 
	C163.136993,100.610771 163.094040,100.349197 163.051086,100.087631 
	C161.604111,100.305588 160.157135,100.523544 158.710159,100.741501 
	C159.129181,101.509224 159.548218,102.276955 160.235748,103.434158 
	C160.441406,103.680344 160.687714,103.875107 161.052795,104.595245 
	C161.363022,105.071198 161.673264,105.547150 162.241699,106.419594 
	C162.440475,106.670265 162.679184,106.874207 163.219284,107.432182 
	C163.423111,107.683807 163.668884,107.883904 164.037003,108.610634 
	C164.345490,109.090385 164.653992,109.570145 165.225281,110.440392 
	C165.424057,110.689423 165.663040,110.890701 166.029480,111.619865 
	C166.340134,112.096779 166.650787,112.573685 167.070419,113.222816 
	C167.070419,113.222816 167.347946,113.211159 167.347946,113.211159 
	C167.347946,113.211159 167.054367,112.958069 166.966080,112.382431 
	C166.657104,111.904274 166.348145,111.426117 165.774399,110.558830 
	C165.574509,110.310646 165.334518,110.110550 164.966629,109.384018 
	C164.653656,108.910164 164.340698,108.436310 163.763916,107.563919 
	C163.565125,107.307137 163.321411,107.104332 162.766006,106.564545 
M100.321991,66.147835 
	C99.864204,67.085800 99.406425,68.023773 98.557999,69.225098 
	C98.316780,69.432739 98.119186,69.675842 97.392998,70.327843 
	C95.305557,74.139343 93.218124,77.950836 91.130684,81.762337 
	C91.749924,82.036804 92.369164,82.311264 92.988396,82.585732 
	C94.676323,78.403419 96.364250,74.221107 98.442307,69.774757 
	C98.683395,69.566925 98.880569,69.323524 99.568268,68.709106 
	C100.056015,67.812920 100.543762,66.916725 101.451645,65.627388 
	C101.643929,65.094597 101.836205,64.561813 102.658455,63.858685 
	C104.728493,61.281128 104.728493,61.281128 102.300262,60.281048 
	C102.192497,61.515797 102.084732,62.750542 101.551247,64.370941 
	C101.353729,64.900078 101.156204,65.429222 100.321991,66.147835 
M147.362228,39.071259 
	C147.356827,39.703899 147.351410,40.336536 147.345993,40.969177 
	C151.974899,40.969177 156.603790,40.969177 161.232697,40.969177 
	C161.216797,40.810322 161.200897,40.651466 161.184998,40.492611 
	C156.800369,40.002781 152.415756,39.512955 148.203186,38.925110 
	C148.203186,38.925110 148.200821,38.667351 148.200821,38.667351 
	C148.200821,38.667351 147.974533,38.966297 147.362228,39.071259 
M150.072128,89.221245 
	C150.072128,89.221245 150.350586,89.211006 150.350586,89.211006 
	C150.350586,89.211006 150.050003,88.961403 150.023102,88.277817 
	C149.446640,87.051315 148.870178,85.824821 148.293716,84.598328 
	C147.768692,84.580910 147.243668,84.563499 146.718643,84.546089 
	C145.320755,88.499290 143.922867,92.452499 142.524979,96.405701 
	C143.010803,96.578384 143.496643,96.751068 143.982483,96.923744 
	C144.695633,94.645264 145.479446,92.385933 146.103424,90.083290 
	C146.827484,87.411301 148.190277,87.572517 150.072128,89.221245 
M131.411072,79.193314 
	C131.812088,77.789589 132.213104,76.385872 132.614120,74.982147 
	C132.026993,74.855598 131.439880,74.729042 130.852768,74.602493 
	C129.523163,80.322220 128.193558,86.041946 126.863953,91.761673 
	C127.368317,91.879768 127.872673,91.997864 128.377029,92.115959 
	C129.306183,88.052864 130.235336,83.989777 131.411072,79.193314 
M159.152985,68.263977 
	C161.237335,68.556580 163.321686,68.849182 165.406036,69.141785 
	C165.428177,68.696999 165.450302,68.252220 165.472443,67.807434 
	C160.157364,67.807434 154.842285,67.807434 149.527206,67.807434 
	C149.543091,68.233246 149.558975,68.659050 149.574860,69.084862 
	C152.493225,68.765900 155.411575,68.446945 159.152985,68.263977 
M168.578156,115.757423 
	C168.747849,115.960815 168.917526,116.164200 169.087219,116.367584 
	C169.194626,116.267471 169.302032,116.167358 169.409439,116.067245 
	C169.216537,115.885056 169.023636,115.702873 168.578156,115.757423 
M142.169296,41.081947 
	C141.894272,41.145916 141.619232,41.209888 141.344208,41.273861 
	C141.433167,41.469063 141.522125,41.664265 141.611084,41.859467 
	C141.924026,41.632133 142.236969,41.404797 142.169296,41.081947 
M155.810318,98.411514 
	C156.009140,98.248451 156.207962,98.085396 156.406784,97.922333 
	C156.307175,97.813599 156.207550,97.704865 156.107941,97.596130 
	C155.930984,97.784332 155.754044,97.972542 155.810318,98.411514 
M153.767105,95.361649 
	C153.965637,95.196869 154.164169,95.032089 154.362701,94.867310 
	C154.261398,94.759628 154.160095,94.651955 154.058777,94.544281 
	C153.883469,94.732910 153.708145,94.921532 153.767105,95.361649 
M151.560791,92.133713 
	C151.846848,92.083900 152.132904,92.034088 152.418961,91.984276 
	C152.130707,91.913376 151.842468,91.842476 151.560791,92.133713 
M137.179047,42.735424 
	C137.434906,42.684410 137.690781,42.633400 137.946640,42.582382 
	C137.891571,42.468674 137.819397,42.251904 137.784164,42.257751 
	C137.529221,42.300068 137.281754,42.387363 137.179047,42.735424 
M150.547943,37.508320 
	C150.547943,37.508320 150.485016,37.537052 150.547943,37.508320 
M146.444489,82.491287 
	C146.444489,82.491287 146.517303,82.453255 146.444489,82.491287 
z"/>
<path fill="#469A9A" opacity="1.000000" stroke="none" 
	d="
M121.950134,103.484924 
	C125.769775,103.717896 127.368675,100.803413 129.578629,98.238464 
	C130.402527,114.113823 130.942505,130.163803 131.464493,145.679031 
	C137.701736,143.403000 144.055191,140.196304 150.783569,138.812241 
	C165.266144,135.833130 179.907410,134.811874 193.557205,142.370956 
	C195.749969,143.585281 198.502731,146.261993 198.537659,148.304733 
	C198.586929,151.186462 196.147018,153.430115 192.501495,154.295059 
	C184.739136,156.136765 177.560211,153.851135 170.321594,152.046555 
	C162.412735,150.074905 154.649796,147.525650 146.776520,145.401382 
	C138.956390,143.291458 131.000977,149.492645 131.001785,157.539093 
	C131.003235,172.033081 131.013123,186.527069 131.061417,201.485550 
	C130.800919,204.972153 130.498459,207.994263 130.165436,211.916260 
	C130.081253,218.270966 130.093201,223.727554 129.946823,229.179901 
	C129.871674,231.978333 128.711960,234.075989 125.450302,233.806473 
	C122.443756,233.558029 121.800621,231.555084 121.987953,228.885773 
	C122.334274,223.950867 122.549561,219.006744 122.819427,214.066467 
	C122.896019,210.341202 122.972618,206.615921 122.957253,202.435226 
	C122.865288,186.322144 122.865288,170.664505 122.865288,155.292877 
	C118.547485,152.487823 114.255844,149.903275 110.192032,146.999847 
	C106.471603,144.341736 103.189026,144.454163 99.405067,147.021362 
	C86.281487,155.924988 71.808937,160.579514 55.837086,159.955231 
	C54.091347,159.887009 52.040936,159.645996 50.723904,158.678879 
	C49.219810,157.574387 47.920658,155.452332 50.789005,154.076691 
	C65.309196,147.112900 80.265335,141.512482 96.464523,140.013672 
	C103.612900,139.352264 109.448761,142.589310 115.034409,146.512726 
	C117.375931,148.157425 119.806808,149.674942 121.984810,151.110397 
	C121.984810,135.052658 121.984810,119.501923 121.950134,103.484924 
z"/>
<path fill="#459898" opacity="1.000000" stroke="none" 
	d="
M125.974739,67.118637 
	C124.525482,70.564148 123.076225,74.009659 121.391861,77.687988 
	C120.327866,76.011284 119.498970,74.101761 118.354584,72.018158 
	C119.202866,69.981392 120.366653,68.118713 122.142197,66.250191 
	C123.827545,66.535774 124.901146,66.827202 125.974739,67.118637 
z"/>
<path fill="#469A9A" opacity="1.000000" stroke="none" 
	d="
M171.080933,89.424042 
	C172.087326,82.725441 166.896103,79.836517 163.264969,75.830559 
	C166.199646,73.749588 169.057297,71.939545 171.663712,69.820457 
	C174.952225,67.146797 174.236938,64.513290 170.676544,62.957199 
	C164.343353,60.189278 157.944061,57.497616 151.373550,55.395710 
	C149.528046,54.805328 147.014603,56.540878 144.759033,56.924351 
	C142.698730,57.274628 140.572815,57.238987 138.355255,56.828568 
	C139.794754,54.862003 141.354797,53.440292 142.914825,52.018578 
	C149.008469,51.666634 155.102097,51.314693 161.660019,50.944809 
	C167.991684,53.927677 174.016052,56.664661 179.668152,60.027321 
	C183.110931,62.075562 185.695099,65.093987 182.962494,69.734062 
	C182.523682,70.479179 183.076935,72.137627 183.644531,73.092834 
	C187.282211,79.214722 187.294632,85.934982 186.955536,92.676659 
	C186.738220,96.996666 183.178772,99.007942 179.479462,96.673683 
	C176.467178,94.772942 173.962479,92.067795 171.080933,89.424042 
z"/>
<path fill="#469A9A" opacity="1.000000" stroke="none" 
	d="
M168.462494,33.920197 
	C161.221725,29.885040 154.008331,30.835463 146.318268,32.984261 
	C145.936462,30.660103 145.671722,28.283289 146.107559,26.042757 
	C146.390839,24.586540 147.684982,23.322536 148.544449,21.984116 
	C149.363388,20.708801 150.462387,19.547489 150.995087,18.165260 
	C153.762085,10.985765 160.106430,5.847140 166.049118,5.978257 
	C170.115799,6.067984 172.175095,8.023348 171.958939,12.048821 
	C171.819855,14.638766 171.682159,17.339281 170.851776,19.752045 
	C169.931717,22.425369 169.944458,24.413218 171.209534,27.131357 
	C171.906769,28.629406 169.671036,31.492514 168.462494,33.920197 
z"/>
<path fill="none" opacity="1.000000" stroke="none" 
	d="
M91.842049,40.811317 
	C86.599251,38.662571 81.352341,36.167603 76.105431,33.672634 
	C76.556519,32.852325 77.007614,32.032013 77.458702,31.211700 
	C82.251785,34.296165 87.044861,37.380627 91.842049,40.811317 
z"/>
<path fill="#2D7E8C" opacity="1.000000" stroke="none" 
	d="
M45.504810,31.965244 
	C38.914883,31.961130 32.702168,31.961130 26.489450,31.961130 
	C26.479874,31.581560 26.470297,31.201990 26.460722,30.822420 
	C33.531036,30.503574 40.601353,30.184729 47.671669,29.865883 
	C47.730820,30.382616 47.789974,30.899351 47.849129,31.416084 
	C47.193428,31.600510 46.537724,31.784935 45.504810,31.965244 
z"/>
<path fill="#227385" opacity="1.000000" stroke="none" 
	d="
M58.832733,34.869530 
	C58.147182,33.674660 57.461636,32.479790 56.968300,31.619946 
	C58.922997,31.936460 61.797306,32.401886 66.061081,33.092300 
	C63.092979,34.009808 61.506760,34.500149 59.479126,35.015442 
	C59.037712,35.040398 58.832733,34.869530 58.832733,34.869530 
z"/>
<path fill="#227385" opacity="1.000000" stroke="none" 
	d="
M68.172409,34.643402 
	C68.849884,34.474838 69.582359,34.533615 70.314835,34.592392 
	C70.254692,34.889584 70.194550,35.186771 70.134399,35.483963 
	C69.498741,35.279556 68.863075,35.075153 68.172409,34.643402 
z"/>
<path fill="#2D7E8C" opacity="1.000000" stroke="none" 
	d="
M22.858524,32.402691 
	C23.017242,32.371502 23.107742,32.414814 23.198242,32.458122 
	C23.062263,32.464478 22.926287,32.470833 22.858524,32.402691 
z"/>
<path fill="#227385" opacity="1.000000" stroke="none" 
	d="
M57.842590,36.864365 
	C58.038780,36.335865 58.234974,35.807365 58.631950,35.074200 
	C58.832733,34.869530 59.037712,35.040398 59.142334,35.128502 
	C59.007587,35.725304 58.768215,36.233997 58.252106,36.864418 
	C57.975372,36.986153 57.842590,36.864365 57.842590,36.864365 
z"/>
<path fill="#227385" opacity="1.000000" stroke="none" 
	d="
M57.037277,38.029942 
	C57.037277,38.029942 56.780064,38.332001 56.780064,38.332001 
	C56.780064,38.332001 56.769886,38.042706 56.884098,38.019196 
	C56.998310,37.995686 57.037277,38.029942 57.037277,38.029942 
z"/>
<path fill="#227385" opacity="1.000000" stroke="none" 
	d="
M58.037743,37.051163 
	C57.951385,37.407528 57.742596,37.646370 57.255508,37.931320 
	C57.037277,38.029942 56.998310,37.995686 56.980202,37.975174 
	C57.033386,37.628304 57.195244,37.355747 57.645126,37.000679 
	C57.842590,36.864365 57.975372,36.986153 58.037743,37.051163 
z"/>
<path fill="#16667F" opacity="1.000000" stroke="none" 
	d="
M197.538925,40.497948 
	C197.729431,44.854294 198.063263,48.929947 198.397095,53.005600 
	C197.920273,53.081585 197.443466,53.157570 196.966660,53.233555 
	C196.485535,48.811832 195.984344,44.391800 195.611557,39.960964 
	C195.599243,39.814663 196.888519,39.551048 197.578812,39.371960 
	C197.622284,39.360687 197.785355,39.604767 197.799271,39.739693 
	C197.815109,39.893230 197.725845,40.057602 197.538925,40.497948 
z"/>
<path fill="#207084" opacity="1.000000" stroke="none" 
	d="
M235.985855,51.021729 
	C234.977600,51.855988 233.969345,52.690247 232.598663,53.824383 
	C232.182449,52.878834 231.539474,51.418152 230.251083,48.491211 
	C233.008499,49.518265 234.284790,49.993652 235.780975,50.734409 
	C236.000870,50.999779 235.985855,51.021725 235.985855,51.021729 
z"/>
<path fill="#207084" opacity="1.000000" stroke="none" 
	d="
M219.859192,45.359138 
	C219.158051,45.521854 218.398605,45.456554 217.639175,45.391251 
	C217.719788,45.100319 217.800400,44.809387 217.881012,44.518456 
	C218.520981,44.722679 219.160934,44.926903 219.859192,45.359138 
z"/>
<path fill="#207084" opacity="1.000000" stroke="none" 
	d="
M238.016327,51.974934 
	C238.346603,52.153835 238.676880,52.332741 239.007156,52.511646 
	C238.745850,52.459335 238.484543,52.407024 238.110870,52.177658 
	C237.998505,52.000603 238.016327,51.974937 238.016327,51.974934 
z"/>
<path fill="#207084" opacity="1.000000" stroke="none" 
	d="
M237.987595,52.011795 
	C237.433121,51.841534 236.889542,51.660076 236.165924,51.250175 
	C235.985855,51.021725 236.000870,50.999779 236.010437,50.990040 
	C236.564392,51.160305 237.108780,51.340309 237.834747,51.747627 
	C238.016327,51.974937 237.998505,52.000603 237.987595,52.011795 
z"/>
<path fill="#207084" opacity="1.000000" stroke="none" 
	d="
M229.031525,48.694382 
	C228.990448,48.694382 229.072586,48.694378 229.031525,48.694382 
z"/>
<path fill="#207084" opacity="1.000000" stroke="none" 
	d="
M244.166977,54.617798 
	C243.968903,54.655682 243.855713,54.603069 243.742538,54.550461 
	C243.912323,54.542744 244.082092,54.535027 244.166977,54.617798 
z"/>
<path fill="#207084" opacity="1.000000" stroke="none" 
	d="
M226.215790,47.423500 
	C226.166916,47.579987 226.053757,47.631416 225.940582,47.682838 
	C226.010895,47.561371 226.081207,47.439903 226.215790,47.423500 
z"/>
<path fill="#207084" opacity="1.000000" stroke="none" 
	d="
M222.809723,46.385452 
	C223.011353,46.346466 223.126251,46.398270 223.241150,46.450073 
	C223.068420,46.458797 222.895706,46.467518 222.809723,46.385452 
z"/>
<path fill="#207084" opacity="1.000000" stroke="none" 
	d="
M241.552795,53.550461 
	C241.491364,53.586033 241.614227,53.514885 241.552795,53.550461 
z"/>
<path fill="#986A41" opacity="1.000000" stroke="none" 
	d="
M122.385284,214.098450 
	C122.549561,219.006744 122.334274,223.950867 121.987953,228.885773 
	C121.800621,231.555084 122.443756,233.558029 125.450302,233.806473 
	C128.711960,234.075989 129.871674,231.978333 129.946823,229.179901 
	C130.093201,223.727554 130.081253,218.270966 130.211868,212.345566 
	C138.476105,210.028992 146.519135,210.441101 154.261124,213.772552 
	C160.208679,216.331818 166.139816,217.059647 172.711655,216.520721 
	C177.345078,216.140747 182.256485,218.296249 186.941498,219.668839 
	C190.736481,220.780670 194.477539,222.201218 198.062805,223.870743 
	C202.031174,225.718658 205.784332,228.025726 209.653885,230.090378 
	C211.039780,230.829849 212.442352,231.873734 213.922028,232.044479 
	C220.891815,232.848755 226.357834,235.488388 228.510437,242.769318 
	C228.745178,243.563293 229.118607,244.318893 229.457047,245.079224 
	C232.503662,251.923386 232.455063,252.403168 225.931015,256.751007 
	C213.624130,264.952728 199.631866,268.726349 185.356796,271.389679 
	C142.124359,279.455688 98.982292,279.137695 56.096226,268.957611 
	C44.416264,266.185059 33.000935,262.461182 23.286135,254.945862 
	C22.108521,254.034866 20.995180,253.010223 19.998142,251.906311 
	C19.238642,251.065369 18.710680,250.015289 17.553095,248.259491 
	C22.686687,243.188080 27.385265,237.582321 33.042370,233.219437 
	C39.128426,228.525742 45.817074,224.339981 52.809002,221.188965 
	C57.588211,219.035126 63.332840,218.296814 68.654213,218.263550 
	C74.786659,218.225220 80.436821,217.622314 86.001060,214.807938 
	C94.518730,210.499725 103.431496,209.832184 112.656609,212.872971 
	C115.575783,213.835175 118.843132,213.741119 122.385284,214.098450 
M94.941277,223.546326 
	C87.818161,223.676529 79.436111,232.210144 80.346031,239.012680 
	C80.582619,240.781433 82.931030,243.322250 84.632408,243.611984 
	C87.776649,244.147385 92.018547,244.414917 94.240715,242.731506 
	C97.530830,240.239059 100.440102,236.261978 101.696236,232.336151 
	C103.014824,228.215149 99.493599,225.400177 94.941277,223.546326 
M166.081589,224.235443 
	C159.384720,222.144669 155.060043,223.913422 155.083786,228.905167 
	C155.100174,232.351227 155.823181,235.641541 160.026718,236.489014 
	C163.526062,237.194489 167.533295,237.987000 169.386566,234.216187 
	C171.048172,230.835312 170.626785,226.991669 166.081589,224.235443 
M145.331726,239.939819 
	C143.248840,239.644791 141.165955,239.349762 139.083069,239.054718 
	C138.945740,239.525940 138.808411,239.997162 138.671097,240.468384 
	C144.929062,240.965942 149.147842,244.081024 151.649506,249.603546 
	C151.957718,250.283966 153.273041,250.872589 154.127594,250.880707 
	C158.933228,250.926468 160.964127,254.187988 162.866547,257.852173 
	C163.489151,259.051331 164.741745,259.923370 165.706223,260.945038 
	C166.114105,260.538147 166.521988,260.131287 166.929871,259.724426 
	C165.567398,254.862305 162.941010,251.063873 157.831085,249.122986 
	C156.395111,248.577545 155.095810,247.566895 153.868729,246.598663 
	C151.226440,244.513763 148.671768,242.317841 145.331726,239.939819 
M199.943359,249.703217 
	C200.675690,251.667801 201.408035,253.632370 202.511719,256.593140 
	C205.567734,248.133392 201.247864,240.768387 195.049728,241.664276 
	C196.624390,244.097183 198.199036,246.530106 199.943359,249.703217 
M43.047356,257.562744 
	C43.898937,257.238403 45.102776,257.166412 45.545189,256.548920 
	C48.511066,252.409286 51.655022,248.651428 58.273293,249.106552 
	C51.906170,245.466507 44.688728,249.642120 43.047356,257.562744 
M109.901489,257.540771 
	C110.943336,257.139587 111.985184,256.738403 114.127831,255.913330 
	C105.528625,255.152191 101.398788,258.087250 101.964905,263.864380 
	C104.483009,261.753906 106.855171,259.765747 109.901489,257.540771 
z"/>
<path fill="none" opacity="1.000000" stroke="none" 
	d="
M126.282471,66.960114 
	C124.901146,66.827202 123.827545,66.535774 122.446594,66.087799 
	C123.182213,64.090294 124.064873,62.132004 125.306046,60.436108 
	C127.129486,57.944637 128.351776,58.120045 130.992386,61.070385 
	C129.547699,62.951225 128.068939,64.876411 126.282471,66.960114 
z"/>
<path fill="none" opacity="1.000000" stroke="none" 
	d="
M142.508148,52.010933 
	C141.354797,53.440292 139.794754,54.862003 138.080811,56.573532 
	C135.930542,56.338005 133.934158,55.812668 131.689407,55.221977 
	C134.354141,48.529644 138.665344,52.170780 142.508148,52.010933 
z"/>
<path fill="#146178" opacity="1.000000" stroke="none" 
	d="
M131.287781,79.559998 
	C130.235336,83.989777 129.306183,88.052864 128.377029,92.115959 
	C127.872673,91.997864 127.368317,91.879768 126.863953,91.761673 
	C128.193558,86.041946 129.523163,80.322220 130.852768,74.602493 
	C131.439880,74.729042 132.026993,74.855598 132.614120,74.982147 
	C132.213104,76.385872 131.812088,77.789589 131.287781,79.559998 
z"/>
<path fill="#146178" opacity="1.000000" stroke="none" 
	d="
M149.965393,89.045471 
	C148.190277,87.572517 146.827484,87.411301 146.103424,90.083290 
	C145.479446,92.385933 144.695633,94.645264 143.982483,96.923744 
	C143.496643,96.751068 143.010803,96.578384 142.524979,96.405701 
	C143.922867,92.452499 145.320755,88.499290 146.718643,84.546089 
	C147.243668,84.563499 147.768692,84.580910 148.293716,84.598328 
	C148.870178,85.824821 149.446640,87.051315 150.014206,88.639427 
	C150.005310,89.001038 149.965393,89.045471 149.965393,89.045471 
z"/>
<path fill="#1E6A79" opacity="1.000000" stroke="none" 
	d="
M158.741455,68.195984 
	C155.411575,68.446945 152.493225,68.765900 149.574860,69.084862 
	C149.558975,68.659050 149.543091,68.233246 149.527206,67.807434 
	C154.842285,67.807434 160.157364,67.807434 165.472443,67.807434 
	C165.450302,68.252220 165.428177,68.696999 165.406036,69.141785 
	C163.321686,68.849182 161.237335,68.556580 158.741455,68.195984 
z"/>
<path fill="#156378" opacity="1.000000" stroke="none" 
	d="
M98.052177,70.038795 
	C96.364250,74.221107 94.676323,78.403419 92.988396,82.585732 
	C92.369164,82.311264 91.749924,82.036804 91.130684,81.762337 
	C93.218124,77.950836 95.305557,74.139343 97.699783,70.163864 
	C98.006569,69.999886 98.052177,70.038795 98.052177,70.038795 
z"/>
<path fill="#1B6879" opacity="1.000000" stroke="none" 
	d="
M148.031128,39.023125 
	C152.415756,39.512955 156.800369,40.002781 161.184998,40.492611 
	C161.200897,40.651466 161.216797,40.810322 161.232697,40.969177 
	C156.603790,40.969177 151.974899,40.969177 147.345993,40.969177 
	C147.351410,40.336536 147.356827,39.703899 147.681244,39.034302 
	C148.000259,38.997345 148.031128,39.023125 148.031128,39.023125 
z"/>
<path fill="#146178" opacity="1.000000" stroke="none" 
	d="
M142.041306,73.960304 
	C143.341049,75.874168 144.640778,77.788033 145.940521,79.701904 
	C145.441330,79.980133 144.942139,80.258362 144.442947,80.536598 
	C143.625443,78.612144 142.807953,76.687691 141.996094,74.379593 
	C142.001755,73.995956 142.041306,73.960304 142.041306,73.960304 
z"/>
<path fill="#176478" opacity="1.000000" stroke="none" 
	d="
M159.967239,103.044678 
	C159.548218,102.276955 159.129181,101.509224 158.710159,100.741501 
	C160.157135,100.523544 161.604111,100.305588 163.051086,100.087631 
	C163.094040,100.349197 163.136993,100.610771 163.179947,100.872337 
	C162.180450,101.383942 161.180954,101.895546 160.091431,102.705765 
	C160.001419,103.004387 159.967239,103.044678 159.967239,103.044678 
z"/>
<path fill="#156378" opacity="1.000000" stroke="none" 
	d="
M101.976967,63.985291 
	C102.084732,62.750542 102.192497,61.515797 102.300179,60.281029 
	C104.728493,61.281128 104.728493,61.281128 102.331116,63.931557 
	C102.003784,64.004433 101.976967,63.985291 101.976967,63.985291 
z"/>
<path fill="#146178" opacity="1.000000" stroke="none" 
	d="
M140.036118,69.952423 
	C140.777023,69.967896 141.517944,69.983368 142.628418,70.244797 
	C142.997986,70.490761 142.989502,70.980957 142.989502,70.980957 
	C142.675171,71.757103 142.360840,72.533249 142.043915,73.634850 
	C142.041306,73.960304 142.001755,73.995956 141.980240,74.012863 
	C141.294754,72.928040 140.630768,71.826309 139.979950,70.362366 
	C139.993088,70.000160 140.036118,69.952423 140.036118,69.952423 
z"/>
<path fill="#146178" opacity="1.000000" stroke="none" 
	d="
M135.990036,68.993050 
	C136.307739,67.897331 136.625458,66.801605 136.970947,65.353256 
	C136.998718,65.000618 137.012024,64.983025 137.012024,64.983025 
	C137.685394,66.079826 138.358765,67.176628 139.019287,68.636978 
	C139.006439,69.000519 138.961777,69.050163 138.961777,69.050163 
	C138.224228,69.040184 137.486694,69.030212 136.374969,69.010521 
	C136.000793,69.000809 135.990036,68.993050 135.990036,68.993050 
z"/>
<path fill="#146178" opacity="1.000000" stroke="none" 
	d="
M136.006104,69.006424 
	C135.502472,70.188484 134.993515,71.364944 134.484573,72.541397 
	C134.104584,72.313736 133.724609,72.086067 133.344620,71.858406 
	C134.045639,71.003891 134.746658,70.149368 135.718857,69.143951 
	C135.990036,68.993050 136.000793,69.000809 136.006104,69.006424 
z"/>
<path fill="#1E6A79" opacity="1.000000" stroke="none" 
	d="
M143.288330,70.941605 
	C142.989502,70.980957 142.997986,70.490761 142.998993,70.245636 
	C143.896530,69.683731 144.793060,69.366959 145.689590,69.050179 
	C145.787537,69.306976 145.885483,69.563774 145.983444,69.820572 
	C145.184677,70.181137 144.385910,70.541695 143.288330,70.941605 
z"/>
<path fill="#156378" opacity="1.000000" stroke="none" 
	d="
M98.948639,68.961739 
	C99.406425,68.023773 99.864204,67.085800 100.657700,66.069656 
	C100.993408,65.991486 101.031502,66.020538 101.031502,66.020538 
	C100.543762,66.916725 100.056015,67.812920 99.281044,68.854797 
	C98.993820,69.000488 98.948639,68.961739 98.948639,68.961739 
z"/>
<path fill="#176478" opacity="1.000000" stroke="none" 
	d="
M168.704437,115.639053 
	C169.023636,115.702873 169.216537,115.885056 169.409439,116.067245 
	C169.302032,116.167358 169.194626,116.267471 169.087219,116.367584 
	C168.917526,116.164200 168.747849,115.960815 168.704437,115.639053 
z"/>
<path fill="#1B6879" opacity="1.000000" stroke="none" 
	d="
M142.359604,41.129707 
	C142.236969,41.404797 141.924026,41.632133 141.611084,41.859467 
	C141.522125,41.664265 141.433167,41.469063 141.344208,41.273861 
	C141.619232,41.209888 141.894272,41.145916 142.359604,41.129707 
z"/>
<path fill="#176478" opacity="1.000000" stroke="none" 
	d="
M155.693695,98.286133 
	C155.754044,97.972542 155.930984,97.784332 156.107941,97.596130 
	C156.207550,97.704865 156.307175,97.813599 156.406784,97.922333 
	C156.207962,98.085396 156.009140,98.248451 155.693695,98.286133 
z"/>
<path fill="#146178" opacity="1.000000" stroke="none" 
	d="
M153.649963,95.235901 
	C153.708145,94.921532 153.883469,94.732910 154.058777,94.544281 
	C154.160095,94.651955 154.261398,94.759628 154.362701,94.867310 
	C154.164169,95.032089 153.965637,95.196869 153.649963,95.235901 
z"/>
<path fill="#146178" opacity="1.000000" stroke="none" 
	d="
M151.557495,91.952637 
	C151.842468,91.842476 152.130707,91.913376 152.418961,91.984268 
	C152.132904,92.034088 151.846848,92.083900 151.557495,91.952637 
z"/>
<path fill="#1B6879" opacity="1.000000" stroke="none" 
	d="
M137.105469,42.597919 
	C137.281754,42.387363 137.529221,42.300068 137.784164,42.257751 
	C137.819397,42.251904 137.891571,42.468674 137.946640,42.582382 
	C137.690781,42.633400 137.434906,42.684410 137.105469,42.597919 
z"/>
<path fill="#176478" opacity="1.000000" stroke="none" 
	d="
M166.039185,110.947960 
	C166.348145,111.426117 166.657104,111.904274 166.985748,112.692139 
	C167.005432,113.001854 166.961426,113.050598 166.961426,113.050598 
	C166.650787,112.573685 166.340134,112.096779 166.011902,111.309036 
	C165.994308,110.998199 166.039185,110.947960 166.039185,110.947960 
z"/>
<path fill="#176478" opacity="1.000000" stroke="none" 
	d="
M164.027740,107.962456 
	C164.340698,108.436310 164.653656,108.910164 164.986206,109.692780 
	C165.005783,110.001534 164.962479,110.049896 164.962479,110.049896 
	C164.653992,109.570145 164.345490,109.090385 164.015900,108.305382 
	C163.994812,108.000130 164.027740,107.962456 164.027740,107.962456 
z"/>
<path fill="#176478" opacity="1.000000" stroke="none" 
	d="
M161.015839,103.977722 
	C161.326050,104.453331 161.636261,104.928940 161.974075,105.702148 
	C162.001694,105.999733 161.983505,106.023102 161.983505,106.023102 
	C161.673264,105.547150 161.363022,105.071198 161.025406,104.297913 
	C160.998016,104.000580 161.015839,103.977722 161.015839,103.977722 
z"/>
<path fill="#156378" opacity="1.000000" stroke="none" 
	d="
M109.013985,57.009804 
	C108.805412,57.198067 108.608467,57.402958 108.379959,57.562691 
	C108.324081,57.601749 108.164818,57.492905 108.053085,57.452049 
	C108.237816,57.305664 108.422554,57.159275 108.803551,57.006168 
	C108.999809,56.999447 109.013985,57.009804 109.013985,57.009804 
z"/>
<path fill="#156378" opacity="1.000000" stroke="none" 
	d="
M100.976044,65.974922 
	C101.156204,65.429222 101.353729,64.900078 101.764107,64.178116 
	C101.976967,63.985291 102.003784,64.004433 102.016136,64.016724 
	C101.836205,64.561813 101.643929,65.094597 101.241577,65.823959 
	C101.031502,66.020538 100.993408,65.991486 100.976044,65.974922 
z"/>
<path fill="#1B6879" opacity="1.000000" stroke="none" 
	d="
M147.987396,38.981819 
	C147.974533,38.966297 148.200821,38.667351 148.200821,38.667351 
	C148.200821,38.667351 148.203186,38.925110 148.117157,38.974117 
	C148.031128,39.023125 148.000259,38.997345 147.987396,38.981819 
z"/>
<path fill="#176478" opacity="1.000000" stroke="none" 
	d="
M167.029907,112.979965 
	C167.054367,112.958069 167.347946,113.211159 167.347946,113.211159 
	C167.347946,113.211159 167.070419,113.222816 167.015930,113.136703 
	C166.961426,113.050598 167.005432,113.001854 167.029907,112.979965 
z"/>
<path fill="#1B6879" opacity="1.000000" stroke="none" 
	d="
M150.516479,37.522686 
	C150.485016,37.537052 150.547943,37.508320 150.516479,37.522686 
z"/>
<path fill="#176478" opacity="1.000000" stroke="none" 
	d="
M165.030106,109.980042 
	C165.334518,110.110550 165.574509,110.310646 165.906799,110.753395 
	C166.039185,110.947960 165.994308,110.998199 165.968277,111.021210 
	C165.663040,110.890701 165.424057,110.689423 165.093872,110.245148 
	C164.962479,110.049896 165.005783,110.001534 165.030106,109.980042 
z"/>
<path fill="#176478" opacity="1.000000" stroke="none" 
	d="
M163.975708,108.016304 
	C163.668884,107.883904 163.423111,107.683807 163.108627,107.214142 
	C162.997971,106.996109 163.032761,106.955521 163.032761,106.955521 
	C163.321411,107.104332 163.565125,107.307137 163.895828,107.763184 
	C164.027740,107.962456 163.994812,108.000130 163.975708,108.016304 
z"/>
<path fill="#176478" opacity="1.000000" stroke="none" 
	d="
M162.977905,107.013763 
	C162.679184,106.874207 162.440475,106.670265 162.112610,106.221344 
	C161.983505,106.023102 162.001694,105.999733 162.013916,105.990311 
	C162.314026,106.123161 162.560638,106.317711 162.899384,106.760033 
	C163.032761,106.955521 162.997971,106.996109 162.977905,107.013763 
z"/>
<path fill="#176478" opacity="1.000000" stroke="none" 
	d="
M160.986359,104.009514 
	C160.687714,103.875107 160.441406,103.680344 160.101501,103.239418 
	C159.967239,103.044678 160.001419,103.004387 160.021774,102.986504 
	C160.318802,103.128281 160.556732,103.332970 160.885895,103.780197 
	C161.015839,103.977722 160.998016,104.000580 160.986359,104.009514 
z"/>
<path fill="#146178" opacity="1.000000" stroke="none" 
	d="
M150.027649,88.981216 
	C150.050003,88.961403 150.350586,89.211006 150.350586,89.211006 
	C150.350586,89.211006 150.072128,89.221245 150.018768,89.133362 
	C149.965393,89.045471 150.005310,89.001038 150.027649,88.981216 
z"/>
<path fill="#146178" opacity="1.000000" stroke="none" 
	d="
M146.480896,82.472275 
	C146.517303,82.453255 146.444489,82.491287 146.480896,82.472275 
z"/>
<path fill="#156378" opacity="1.000000" stroke="none" 
	d="
M109.980324,55.986019 
	C109.980324,55.986019 110.190918,55.667862 110.190918,55.667862 
	C110.190918,55.667862 110.193138,55.925682 110.096054,55.962688 
	C109.998962,55.999695 109.980324,55.986019 109.980324,55.986019 
z"/>
<path fill="#156378" opacity="1.000000" stroke="none" 
	d="
M110.005814,56.008671 
	C109.861496,56.301811 109.661163,56.545570 109.212830,56.879364 
	C109.013985,57.009804 108.999809,56.999447 108.994263,56.991879 
	C109.129433,56.692608 109.325897,56.445160 109.779205,56.113991 
	C109.980324,55.986019 109.998962,55.999695 110.005814,56.008671 
z"/>
<path fill="#146178" opacity="1.000000" stroke="none" 
	d="
M135.985870,64.019783 
	C135.985870,64.019783 135.669037,63.813370 135.669037,63.813370 
	C135.669037,63.813370 135.925293,63.809109 135.962341,63.905220 
	C135.999390,64.001335 135.985870,64.019783 135.985870,64.019783 
z"/>
<path fill="#146178" opacity="1.000000" stroke="none" 
	d="
M139.968918,70.021339 
	C139.657349,69.899170 139.415512,69.700394 139.090500,69.248184 
	C138.961777,69.050163 139.006439,69.000519 139.032379,68.977692 
	C139.344513,69.100311 139.585190,69.300468 139.908234,69.753876 
	C140.036118,69.952423 139.993088,70.000160 139.968918,70.021339 
z"/>
<path fill="#156378" opacity="1.000000" stroke="none" 
	d="
M99.013824,69.022522 
	C98.880569,69.323524 98.683395,69.566925 98.247238,69.906776 
	C98.052177,70.038795 98.006569,69.999886 97.985893,69.977150 
	C98.119186,69.675842 98.316780,69.432739 98.753319,69.093414 
	C98.948639,68.961739 98.993820,69.000488 99.013824,69.022522 
z"/>
<path fill="#146178" opacity="1.000000" stroke="none" 
	d="
M136.989548,65.007401 
	C136.688614,64.873451 136.441574,64.676590 136.112564,64.221695 
	C135.985870,64.019783 135.999390,64.001335 136.008392,63.994415 
	C136.301407,64.138390 136.545334,64.338234 136.880585,64.785027 
	C137.012024,64.983025 136.998718,65.000618 136.989548,65.007401 
z"/>
<path fill="#B7844C" opacity="1.000000" stroke="none" 
	d="
M95.284554,223.687378 
	C99.493599,225.400177 103.014824,228.215149 101.696236,232.336151 
	C100.440102,236.261978 97.530830,240.239059 94.240715,242.731506 
	C92.018547,244.414917 87.776649,244.147385 84.632408,243.611984 
	C82.931030,243.322250 80.582619,240.781433 80.346031,239.012680 
	C79.436111,232.210144 87.818161,223.676529 95.284554,223.687378 
z"/>
<path fill="#B7844C" opacity="1.000000" stroke="none" 
	d="
M166.430969,224.412964 
	C170.626785,226.991669 171.048172,230.835312 169.386566,234.216187 
	C167.533295,237.987000 163.526062,237.194489 160.026718,236.489014 
	C155.823181,235.641541 155.100174,232.351227 155.083786,228.905167 
	C155.060043,223.913422 159.384720,222.144669 166.430969,224.412964 
z"/>
<path fill="#B5824B" opacity="1.000000" stroke="none" 
	d="
M145.706482,240.053589 
	C148.671768,242.317841 151.226440,244.513763 153.868729,246.598663 
	C155.095810,247.566895 156.395111,248.577545 157.831085,249.122986 
	C162.941010,251.063873 165.567398,254.862305 166.929871,259.724426 
	C166.521988,260.131287 166.114105,260.538147 165.706223,260.945038 
	C164.741745,259.923370 163.489151,259.051331 162.866547,257.852173 
	C160.964127,254.187988 158.933228,250.926468 154.127594,250.880707 
	C153.273041,250.872589 151.957718,250.283966 151.649506,249.603546 
	C149.147842,244.081024 144.929062,240.965942 138.671097,240.468384 
	C138.808411,239.997162 138.945740,239.525940 139.083069,239.054718 
	C141.165955,239.349762 143.248840,239.644791 145.706482,240.053589 
z"/>
<path fill="#B5824B" opacity="1.000000" stroke="none" 
	d="
M199.858521,249.333115 
	C198.199036,246.530106 196.624390,244.097183 195.052002,241.662933 
	C201.247864,240.768387 205.567734,248.133392 202.511719,256.593140 
	C201.408035,253.632370 200.675690,251.667801 199.858521,249.333115 
z"/>
<path fill="#B4814A" opacity="1.000000" stroke="none" 
	d="
M42.827614,257.328735 
	C44.688728,249.642120 51.906170,245.466507 58.273293,249.106552 
	C51.655022,248.651428 48.511066,252.409286 45.545189,256.548920 
	C45.102776,257.166412 43.898937,257.238403 42.827614,257.328735 
z"/>
<path fill="#B5824B" opacity="1.000000" stroke="none" 
	d="
M109.564407,257.659180 
	C106.855171,259.765747 104.483009,261.753906 101.964905,263.864380 
	C101.398788,258.087250 105.528625,255.152191 114.127831,255.913330 
	C111.985184,256.738403 110.943336,257.139587 109.564407,257.659180 
z"/>
</svg>