<svg version="1.1" id="Layer_1" xmlns="http://www.w3.org/2000/svg" xmlns:xlink="http://www.w3.org/1999/xlink" x="0px" y="0px"
	 width="100%" viewBox="0 0 238 313" enable-background="new 0 0 238 313" xml:space="preserve">
<path fill="#FEA28B" opacity="1.000000" stroke="none" 
	d="
M140.000000,314.000000 
	C125.979103,314.000000 111.958214,314.000000 97.809158,313.659302 
	C96.841270,312.881653 96.039528,312.177216 95.155594,312.051727 
	C89.832657,311.296051 84.466606,310.824921 79.160118,309.976288 
	C65.015602,307.714294 51.285641,304.020416 39.248886,295.936401 
	C34.238823,292.571625 28.779163,288.986633 28.011969,282.122314 
	C26.542164,268.971497 25.225534,255.801514 24.033535,242.622452 
	C23.190300,233.299393 22.669239,223.947418 21.979269,214.610199 
	C21.664829,210.354965 21.305267,206.102859 20.939180,201.851654 
	C20.027220,191.261459 19.099779,180.672577 18.492001,170.225128 
	C26.955441,173.254822 34.960587,176.680237 43.284412,178.922760 
	C62.950985,184.221115 83.094925,186.190567 103.430649,187.314468 
	C128.161194,188.681274 152.695587,187.413437 176.947479,182.995422 
	C191.112488,180.414948 204.899078,175.757233 218.918839,172.462555 
	C218.654282,176.132935 218.266739,179.370056 218.010849,182.617538 
	C217.300552,191.632141 216.770462,200.662674 215.938034,209.665527 
	C214.731735,222.711731 213.200409,235.728317 212.039841,248.778183 
	C211.165390,258.611023 211.181412,268.553986 209.742371,278.291473 
	C209.101685,282.626709 206.517212,287.123627 203.653610,290.586853 
	C197.909210,297.534180 189.752640,301.148499 181.362320,303.981415 
	C168.707275,308.254272 155.791824,311.342712 142.382523,312.083710 
	C141.555573,312.129395 140.792694,313.334412 140.000000,314.000000 
z"/>
<path fill="#FDA28B" opacity="1.000000" stroke="none" 
	d="
M0.999999,152.000000 
	C1.000000,133.312439 1.000000,114.624878 1.255798,95.798035 
	C3.860628,92.758362 5.647560,88.896797 8.661866,87.134003 
	C18.537996,81.358398 28.374695,74.870888 39.108784,71.336174 
	C64.226433,63.064972 90.412079,60.265312 116.892258,60.460133 
	C116.843613,64.664940 116.741707,68.409058 116.306679,72.193039 
	C113.204987,71.926598 110.265709,72.114113 107.698090,71.226501 
	C97.816231,67.810371 88.593758,69.071541 79.105453,73.190582 
	C74.309891,75.272408 68.577980,76.109169 63.307419,75.978363 
	C54.684685,75.764366 47.160286,77.299828 41.000443,83.734352 
	C39.670734,85.123360 37.769043,86.012665 36.035622,86.957504 
	C32.257843,89.016663 27.894793,90.358055 24.728451,93.098938 
	C20.060158,97.139938 16.226357,102.144958 10.707027,108.198181 
	C13.410410,110.169205 15.613268,112.365715 18.264030,113.601273 
	C27.567186,117.937637 36.683746,123.200241 46.482361,125.856583 
	C88.618713,137.279449 131.382034,137.430878 174.239548,130.552399 
	C189.710190,128.069427 204.958694,124.288361 218.523056,115.871964 
	C226.607956,110.855469 226.599060,110.486237 223.150635,102.089012 
	C222.834595,101.319443 222.532913,100.542587 222.261429,99.756378 
	C220.064926,93.395218 214.875626,91.282318 208.889145,90.101883 
	C207.088593,89.746849 205.355957,88.840462 203.706100,87.970650 
	C200.107452,86.073448 196.688171,83.804192 192.996872,82.123405 
	C189.249771,80.417213 185.320602,79.043434 181.367523,77.874519 
	C176.682755,76.489243 171.813446,74.300995 167.157684,74.592697 
	C160.815369,74.990067 154.951187,74.710442 149.148193,72.144821 
	C140.069214,68.130798 130.782455,67.844780 121.304642,70.497879 
	C121.526611,66.690704 121.815109,63.320354 122.562332,59.972069 
	C132.867325,60.661980 142.711044,61.370590 152.560440,61.988728 
	C170.175034,63.094204 187.318771,66.639488 203.911896,72.525246 
	C217.103485,77.204437 230.064316,82.520920 237.975082,95.262695 
	C238.030884,95.352592 238.646027,95.095222 239.000000,95.000000 
	C239.000000,113.687561 239.000000,132.375122 238.751190,151.203339 
	C233.672668,157.884598 227.535248,162.793625 219.848938,166.140839 
	C219.390701,166.461716 219.188370,166.731140 218.990540,166.997620 
	C218.995071,166.994659 219.001022,166.985596 218.619690,166.977753 
	C150.983276,189.477402 83.954254,189.844284 16.998760,164.609772 
	C12.185511,160.463135 7.569340,156.608505 2.911101,152.805405 
	C2.397331,152.385956 1.642842,152.261353 0.999999,152.000000 
z"/>
<path fill="none" opacity="1.000000" stroke="none" 
	d="
M116.839012,59.999435 
	C90.412079,60.265312 64.226433,63.064972 39.108784,71.336174 
	C28.374695,74.870888 18.537996,81.358398 8.661866,87.134003 
	C5.647560,88.896797 3.860628,92.758362 1.255798,95.329376 
	C1.000000,63.728806 1.000000,32.457611 1.000000,1.000000 
	C43.020710,1.000000 85.041695,1.000000 127.810745,1.302721 
	C125.361397,4.422786 122.163986,7.240129 118.808128,10.197091 
	C118.501915,9.906316 117.657654,9.118527 116.828537,8.315115 
	C109.741035,1.447240 99.234406,1.970151 91.969917,6.647323 
	C88.238274,9.049902 87.034157,13.032578 88.228149,17.121254 
	C89.404335,21.148951 93.095230,21.758451 96.893494,22.060892 
	C102.040054,22.470694 106.582535,21.160179 110.972359,18.592112 
	C112.603256,17.638031 114.630272,17.361065 116.839012,16.660362 
	C116.839012,31.797445 116.839012,45.898441 116.839012,59.999435 
z"/>
<path fill="none" opacity="1.000000" stroke="none" 
	d="
M239.000000,94.531342 
	C238.646027,95.095222 238.030884,95.352592 237.975082,95.262695 
	C230.064316,82.520920 217.103485,77.204437 203.911896,72.525246 
	C187.318771,66.639488 170.175034,63.094204 152.560440,61.988728 
	C142.711044,61.370590 132.867325,60.661980 122.520203,59.507591 
	C122.013123,46.913994 121.969421,34.806805 122.016731,22.699965 
	C122.039886,16.774668 124.352371,14.400311 130.140701,15.113994 
	C133.623611,15.543425 136.978256,17.052019 140.376434,18.120533 
	C145.127533,19.614468 149.768433,18.272982 151.600510,14.831287 
	C153.089325,12.034435 151.013855,6.894334 147.483398,4.134647 
	C146.462570,3.336687 145.817398,2.058193 145.000000,1.000000 
	C176.260254,1.000000 207.520508,1.000000 239.000000,1.000000 
	C239.000000,32.020550 239.000000,63.041618 239.000000,94.531342 
z"/>
<path fill="none" opacity="1.000000" stroke="none" 
	d="
M220.104828,166.089386 
	C227.535248,162.793625 233.672668,157.884598 238.751190,151.671997 
	C239.000000,205.909348 239.000000,259.818695 239.000000,314.000000 
	C206.312943,314.000000 173.625122,314.000000 140.468658,314.000000 
	C140.792694,313.334412 141.555573,312.129395 142.382523,312.083710 
	C155.791824,311.342712 168.707275,308.254272 181.362320,303.981415 
	C189.752640,301.148499 197.909210,297.534180 203.653610,290.586853 
	C206.517212,287.123627 209.101685,282.626709 209.742371,278.291473 
	C211.181412,268.553986 211.165390,258.611023 212.039841,248.778183 
	C213.200409,235.728317 214.731735,222.711731 215.938034,209.665527 
	C216.770462,200.662674 217.300552,191.632141 218.010849,182.617538 
	C218.266739,179.370056 218.654282,176.132935 218.984116,172.046890 
	C218.991333,169.796997 218.996185,168.391296 219.001022,166.985596 
	C219.001022,166.985596 218.995071,166.994659 219.247375,166.951889 
	C219.701401,166.635864 219.903107,166.362625 220.104828,166.089386 
z"/>
<path fill="none" opacity="1.000000" stroke="none" 
	d="
M0.999999,152.468658 
	C1.642842,152.261353 2.397331,152.385956 2.911101,152.805405 
	C7.569340,156.608505 12.185511,160.463135 16.929180,164.997437 
	C17.422426,167.155853 17.800489,168.619507 18.178553,170.083176 
	C19.099779,180.672577 20.027220,191.261459 20.939180,201.851654 
	C21.305267,206.102859 21.664829,210.354965 21.979269,214.610199 
	C22.669239,223.947418 23.190300,233.299393 24.033535,242.622452 
	C25.225534,255.801514 26.542164,268.971497 28.011969,282.122314 
	C28.779163,288.986633 34.238823,292.571625 39.248886,295.936401 
	C51.285641,304.020416 65.015602,307.714294 79.160118,309.976288 
	C84.466606,310.824921 89.832657,311.296051 95.155594,312.051727 
	C96.039528,312.177216 96.841270,312.881653 97.340500,313.659302 
	C65.054344,314.000000 33.108692,314.000000 1.000000,314.000000 
	C1.000000,260.312561 1.000000,206.624939 0.999999,152.468658 
z"/>
<path fill="#469A9A" opacity="1.000000" stroke="none" 
	d="
M144.532394,1.000000 
	C145.817398,2.058193 146.462570,3.336687 147.483398,4.134647 
	C151.013855,6.894334 153.089325,12.034435 151.600510,14.831287 
	C149.768433,18.272982 145.127533,19.614468 140.376434,18.120533 
	C136.978256,17.052019 133.623611,15.543425 130.140701,15.113994 
	C124.352371,14.400311 122.039886,16.774668 122.016731,22.699965 
	C121.969421,34.806805 122.013123,46.913994 122.061478,59.485523 
	C121.815109,63.320354 121.526611,66.690704 121.224220,70.958557 
	C121.135757,75.174637 121.238136,78.512009 120.888809,81.801407 
	C120.769615,82.923660 119.515327,83.925354 118.779678,84.982132 
	C118.103989,83.855049 116.959320,82.773911 116.843506,81.591965 
	C116.537506,78.469032 116.677406,75.302406 116.639801,72.153168 
	C116.741707,68.409058 116.843613,64.664940 116.892258,60.460133 
	C116.839012,45.898441 116.839012,31.797445 116.839012,16.660362 
	C114.630272,17.361065 112.603256,17.638031 110.972359,18.592112 
	C106.582535,21.160179 102.040054,22.470694 96.893494,22.060892 
	C93.095230,21.758451 89.404335,21.148951 88.228149,17.121254 
	C87.034157,13.032578 88.238274,9.049902 91.969917,6.647323 
	C99.234406,1.970151 109.741035,1.447240 116.828537,8.315115 
	C117.657654,9.118527 118.501915,9.906316 118.808128,10.197091 
	C122.163986,7.240129 125.361397,4.422786 128.279404,1.302721 
	C133.354935,1.000000 138.709854,1.000000 144.532394,1.000000 
z"/>
<path fill="#BC8750" opacity="1.000000" stroke="none" 
	d="
M18.492001,170.225128 
	C17.800489,168.619507 17.422426,167.155853 17.113941,165.304535 
	C83.954254,189.844284 150.983276,189.477402 218.619690,166.977753 
	C218.996185,168.391296 218.991333,169.796997 218.921204,171.618378 
	C204.899078,175.757233 191.112488,180.414948 176.947479,182.995422 
	C152.695587,187.413437 128.161194,188.681274 103.430649,187.314468 
	C83.094925,186.190567 62.950985,184.221115 43.284412,178.922760 
	C34.960587,176.680237 26.955441,173.254822 18.492001,170.225128 
z"/>
<path fill="#986A41" opacity="1.000000" stroke="none" 
	d="
M116.306679,72.193039 
	C116.677406,75.302406 116.537506,78.469032 116.843506,81.591965 
	C116.959320,82.773911 118.103989,83.855049 118.779678,84.982132 
	C119.515327,83.925354 120.769615,82.923660 120.888809,81.801407 
	C121.238136,78.512009 121.135757,75.174637 121.290741,71.395378 
	C130.782455,67.844780 140.069214,68.130798 149.148193,72.144821 
	C154.951187,74.710442 160.815369,74.990067 167.157684,74.592697 
	C171.813446,74.300995 176.682755,76.489243 181.367523,77.874519 
	C185.320602,79.043434 189.249771,80.417213 192.996872,82.123405 
	C196.688171,83.804192 200.107452,86.073448 203.706100,87.970650 
	C205.355957,88.840462 207.088593,89.746849 208.889145,90.101883 
	C214.875626,91.282318 220.064926,93.395218 222.261429,99.756378 
	C222.532913,100.542587 222.834595,101.319443 223.150635,102.089012 
	C226.599060,110.486237 226.607956,110.855469 218.523056,115.871964 
	C204.958694,124.288361 189.710190,128.069427 174.239548,130.552399 
	C131.382034,137.430878 88.618713,137.279449 46.482361,125.856583 
	C36.683746,123.200241 27.567186,117.937637 18.264030,113.601273 
	C15.613268,112.365715 13.410410,110.169205 10.707027,108.198181 
	C16.226357,102.144958 20.060158,97.139938 24.728451,93.098938 
	C27.894793,90.358055 32.257843,89.016663 36.035622,86.957504 
	C37.769043,86.012665 39.670734,85.123360 41.000443,83.734352 
	C47.160286,77.299828 54.684685,75.764366 63.307419,75.978363 
	C68.577980,76.109169 74.309891,75.272408 79.105453,73.190582 
	C88.593758,69.071541 97.816231,67.810371 107.698090,71.226501 
	C110.265709,72.114113 113.204987,71.926598 116.306679,72.193039 
M75.047531,99.445549 
	C81.413902,104.787369 89.725121,102.760719 94.521950,94.749634 
	C96.642944,91.207397 96.661194,87.742523 93.921791,84.646591 
	C91.177284,81.544884 87.534302,81.244019 83.871544,82.647812 
	C78.301933,84.782410 73.998367,92.494484 75.047531,99.445549 
M159.271179,82.053452 
	C152.769928,80.518822 149.099808,82.153114 149.091522,86.820320 
	C149.085022,90.476631 149.932419,94.074730 154.321930,94.740173 
	C157.721436,95.255539 161.939026,95.999954 163.541794,91.956680 
	C165.008453,88.256798 164.495468,84.295326 159.271179,82.053452 
M134.346298,98.739113 
	C139.281479,99.189674 142.376648,102.171082 144.946335,106.114120 
	C145.735229,107.324638 147.276474,108.054482 148.497894,108.971527 
	C151.129639,110.947411 153.893250,112.768738 156.368973,114.922249 
	C157.579712,115.975410 158.266983,117.630371 159.549637,119.549194 
	C161.047318,114.762016 157.838287,110.100060 153.130814,107.777885 
	C150.786240,106.621315 148.563828,104.778214 146.919403,102.735802 
	C143.836380,98.906631 137.499161,96.490334 134.346298,98.739113 
M193.227493,105.506500 
	C194.184235,108.212944 195.140976,110.919388 196.097717,113.625839 
	C199.167328,105.856850 194.982895,99.001633 189.241684,99.785370 
	C190.437164,101.426910 191.676865,103.129143 193.227493,105.506500 
M42.312172,107.445854 
	C40.176437,109.835136 38.040699,112.224419 35.904964,114.613701 
	C36.371006,115.088089 36.837044,115.562477 37.303085,116.036865 
	C42.496311,113.532188 44.100006,104.899117 52.417313,107.728165 
	C52.201958,107.074722 51.986603,106.421280 51.771248,105.767830 
	C48.840538,106.196671 45.909824,106.625504 42.312172,107.445854 
M102.732010,116.170601 
	C104.169937,115.579178 105.607872,114.987755 107.573067,114.179466 
	C99.610069,113.148277 95.487648,115.937897 96.003693,122.570511 
	C98.348885,120.265228 100.237968,118.408287 102.732010,116.170601 
z"/>
<path fill="#BC8750" opacity="1.000000" stroke="none" 
	d="
M219.848923,166.140839 
	C219.903107,166.362625 219.701401,166.635864 219.242859,166.954834 
	C219.188370,166.731140 219.390701,166.461716 219.848923,166.140839 
z"/>
<path fill="#B7844C" opacity="1.000000" stroke="none" 
	d="
M74.832001,99.117889 
	C73.998367,92.494484 78.301933,84.782410 83.871544,82.647812 
	C87.534302,81.244019 91.177284,81.544884 93.921791,84.646591 
	C96.661194,87.742523 96.642944,91.207397 94.521950,94.749634 
	C89.725121,102.760719 81.413902,104.787369 74.832001,99.117889 
z"/>
<path fill="#B7844C" opacity="1.000000" stroke="none" 
	d="
M159.651062,82.157425 
	C164.495468,84.295326 165.008453,88.256798 163.541794,91.956680 
	C161.939026,95.999954 157.721436,95.255539 154.321930,94.740173 
	C149.932419,94.074730 149.085022,90.476631 149.091522,86.820320 
	C149.099808,82.153114 152.769928,80.518822 159.651062,82.157425 
z"/>
<path fill="#B5824B" opacity="1.000000" stroke="none" 
	d="
M134.111115,98.522415 
	C137.499161,96.490334 143.836380,98.906631 146.919403,102.735802 
	C148.563828,104.778214 150.786240,106.621315 153.130814,107.777885 
	C157.838287,110.100060 161.047318,114.762016 159.549637,119.549194 
	C158.266983,117.630371 157.579712,115.975410 156.368973,114.922249 
	C153.893250,112.768738 151.129639,110.947411 148.497894,108.971527 
	C147.276474,108.054482 145.735229,107.324638 144.946335,106.114120 
	C142.376648,102.171082 139.281479,99.189674 134.111115,98.522415 
z"/>
<path fill="#B5834B" opacity="1.000000" stroke="none" 
	d="
M193.072021,105.168938 
	C191.676865,103.129143 190.437164,101.426910 189.241684,99.785370 
	C194.982895,99.001633 199.167328,105.856850 196.097717,113.625839 
	C195.140976,110.919388 194.184235,108.212944 193.072021,105.168938 
z"/>
<path fill="#B5824B" opacity="1.000000" stroke="none" 
	d="
M42.645645,107.250092 
	C45.909824,106.625504 48.840538,106.196671 51.771248,105.767830 
	C51.986603,106.421280 52.201958,107.074722 52.417313,107.728165 
	C44.100006,104.899117 42.496311,113.532188 37.303085,116.036865 
	C36.837044,115.562477 36.371006,115.088089 35.904964,114.613701 
	C38.040699,112.224419 40.176437,109.835136 42.645645,107.250092 
z"/>
<path fill="#B4824B" opacity="1.000000" stroke="none" 
	d="
M102.429527,116.360977 
	C100.237968,118.408287 98.348885,120.265228 96.003693,122.570511 
	C95.487648,115.937897 99.610069,113.148277 107.573067,114.179466 
	C105.607872,114.987755 104.169937,115.579178 102.429527,116.360977 
z"/>
</svg>